<svg
      width="320"
      height="189"
      viewBox="0 0 320 189"
      fill="none"
      xmlns="http://www.w3.org/2000/svg"
    >
      <path
        d="M0 3C0 1.34315 1.34315 0 3 0H317C318.657 0 320 1.34315 320 3V186C320 187.657 318.657 189 317 189H2.99999C1.34314 189 0 187.657 0 186V3Z"
        fill="var(--xenon-color-bg-container)"
      />
      <path
        d="M159.797 132.404C197.24 132.404 227.594 128.039 227.594 122.653C227.594 117.268 197.24 112.902 159.797 112.902C122.354 112.902 92 117.268 92 122.653C92 128.039 122.354 132.404 159.797 132.404Z"
        fill="#AEB8C2"
      />
      <path
        fillRule="evenodd"
        clipRule="evenodd"
        d="M214.035 94.0084L190.11 71.3435C188.962 70.2767 187.284 69.6309 185.517 69.6309H134.077C132.311 69.6309 130.633 70.2767 129.485 71.3435L105.561 94.0084V104.31H214.036V94.0084H214.035Z"
        fill="#AEB8C2"
      />
      <path
        fillRule="evenodd"
        clipRule="evenodd"
        d="M125.83 40.377H193.763C194.824 40.377 195.841 40.7013 196.592 41.2788C197.342 41.8562 197.763 42.6393 197.763 43.4559V115.306C197.763 116.123 197.342 116.906 196.592 117.483C195.841 118.061 194.824 118.385 193.763 118.385H125.83C124.769 118.385 123.752 118.061 123.002 117.483C122.252 116.906 121.83 116.123 121.83 115.306V43.4559C121.83 42.6393 122.252 41.8562 123.002 41.2788C123.752 40.7013 124.769 40.377 125.83 40.377Z"
        fill="#F5F5F5"
      />
      <path
        fillRule="evenodd"
        clipRule="evenodd"
        d="M134.678 48.0391H184.915C185.445 48.0391 185.954 48.2013 186.329 48.49C186.704 48.7787 186.915 49.1702 186.915 49.5785V68.7889C186.915 69.1972 186.704 69.5887 186.329 69.8774C185.954 70.1661 185.445 70.3283 184.915 70.3283H134.678C134.147 70.3283 133.638 70.1661 133.263 69.8774C132.888 69.5887 132.678 69.1972 132.678 68.7889V49.5785C132.678 49.1702 132.888 48.7787 133.263 48.49C133.638 48.2013 134.147 48.0391 134.678 48.0391ZM134.94 78.6854H184.653C185.253 78.6854 185.828 78.8688 186.252 79.1953C186.676 79.5219 186.915 79.9647 186.915 80.4265C186.915 80.8883 186.676 81.3312 186.252 81.6577C185.828 81.9842 185.253 82.1677 184.653 82.1677H134.94C134.34 82.1677 133.764 81.9842 133.34 81.6577C132.916 81.3312 132.678 80.8883 132.678 80.4265C132.678 79.9647 132.916 79.5219 133.34 79.1953C133.764 78.8688 134.34 78.6854 134.94 78.6854ZM134.94 87.7398H184.653C185.253 87.7398 185.828 87.9233 186.252 88.2499C186.677 88.5765 186.915 89.0194 186.915 89.4813C186.915 89.9432 186.677 90.3862 186.252 90.7128C185.828 91.0394 185.253 91.2228 184.653 91.2228H134.94C134.34 91.2228 133.764 91.0394 133.34 90.7128C132.915 90.3862 132.677 89.9432 132.677 89.4813C132.677 89.0194 132.915 88.5765 133.34 88.2499C133.764 87.9233 134.34 87.7398 134.94 87.7398ZM213.813 121.225C213.038 123.589 210.316 125.351 207.078 125.351H112.515C109.277 125.351 106.555 123.588 105.781 121.225C105.633 120.774 105.558 120.312 105.559 119.847V94.0093H131.877C134.784 94.0093 137.127 95.8936 137.127 98.1813V98.212C137.127 100.499 139.497 102.346 142.404 102.346H177.189C180.096 102.346 182.466 100.482 182.466 98.1943V98.1851C182.466 95.8974 184.809 94.0085 187.716 94.0085H214.034V119.848C214.034 120.323 213.957 120.784 213.813 121.225Z"
        fill="#DCE0E6"
      />
      <path
        fillRule="evenodd"
        clipRule="evenodd"
        d="M217.122 41.6261L210.292 43.6659C210.116 43.7184 209.925 43.7317 209.74 43.7043C209.555 43.6769 209.384 43.6099 209.247 43.511C209.109 43.4121 209.011 43.2853 208.963 43.1452C208.914 43.0051 208.919 42.8574 208.975 42.7191L210.912 37.9413C208.323 35.6752 206.803 32.9119 206.803 29.9299C206.803 22.2364 216.921 16 229.403 16C241.882 16 252.001 22.2364 252.001 29.9299C252.001 37.6234 241.883 43.8599 229.402 43.8599C224.874 43.8599 220.658 43.0393 217.122 41.6261Z"
        fill="#F5F5F5"
      />
      <path
        d="M238.304 32.4449C239.878 32.4449 241.153 31.4748 241.153 30.2781C241.153 29.0814 239.878 28.1113 238.304 28.1113C236.731 28.1113 235.455 29.0814 235.455 30.2781C235.455 31.4748 236.731 32.4449 238.304 32.4449Z"
        fill="#AEB8C2"
      />
      <path
        fillRule="evenodd"
        clipRule="evenodd"
        d="M223.348 32.1745H217.65L220.548 28.3828L223.348 32.1745ZM226.909 28.3828H231.894V32.1745H226.909V28.3828Z"
        fill="#AEB8C2"
      />
      <path
        d="M128.862 156.326V157.399H123.476V156.326H128.862ZM123.681 152.047V162H122.361V152.047H123.681ZM130.011 152.047V162H128.698V152.047H130.011ZM135.233 162.137C134.718 162.137 134.251 162.05 133.832 161.877C133.417 161.699 133.06 161.451 132.759 161.132C132.463 160.813 132.235 160.435 132.075 159.997C131.916 159.56 131.836 159.081 131.836 158.562V158.274C131.836 157.673 131.925 157.137 132.103 156.668C132.28 156.194 132.522 155.793 132.827 155.465C133.132 155.137 133.479 154.888 133.866 154.72C134.254 154.551 134.655 154.467 135.069 154.467C135.598 154.467 136.054 154.558 136.437 154.74C136.824 154.923 137.141 155.178 137.387 155.506C137.633 155.829 137.815 156.212 137.934 156.654C138.052 157.092 138.111 157.57 138.111 158.09V158.657H132.588V157.625H136.847V157.529C136.828 157.201 136.76 156.882 136.642 156.572C136.528 156.262 136.345 156.007 136.095 155.807C135.844 155.606 135.502 155.506 135.069 155.506C134.782 155.506 134.518 155.567 134.276 155.69C134.035 155.809 133.827 155.987 133.654 156.224C133.481 156.461 133.347 156.75 133.251 157.092C133.155 157.434 133.107 157.828 133.107 158.274V158.562C133.107 158.912 133.155 159.243 133.251 159.553C133.351 159.858 133.495 160.127 133.682 160.359C133.873 160.592 134.103 160.774 134.372 160.906C134.646 161.038 134.955 161.104 135.302 161.104C135.748 161.104 136.127 161.013 136.437 160.831C136.746 160.649 137.018 160.405 137.25 160.1L138.016 160.708C137.856 160.95 137.653 161.18 137.407 161.398C137.161 161.617 136.858 161.795 136.498 161.932C136.143 162.068 135.721 162.137 135.233 162.137ZM142.521 154.604V162H141.249V154.604H142.521ZM145.002 154.604V155.629H138.815V154.604H145.002ZM151.052 154.604H152.316L152.207 157.372C152.18 158.074 152.1 158.68 151.968 159.19C151.836 159.701 151.667 160.136 151.462 160.496C151.257 160.852 151.027 161.15 150.771 161.392C150.521 161.633 150.261 161.836 149.992 162H149.363L149.397 160.968L149.657 160.961C149.808 160.783 149.953 160.601 150.095 160.414C150.236 160.223 150.366 159.997 150.484 159.737C150.603 159.473 150.701 159.152 150.778 158.773C150.86 158.391 150.913 157.924 150.936 157.372L151.052 154.604ZM151.366 154.604H155.816V162H154.552V155.772H151.366V154.604ZM149.076 160.961H156.767V164.181H155.502V162H150.341V164.181H149.069L149.076 160.961ZM162.529 160.735V156.928C162.529 156.636 162.47 156.383 162.352 156.169C162.238 155.95 162.064 155.782 161.832 155.663C161.6 155.545 161.312 155.485 160.971 155.485C160.652 155.485 160.371 155.54 160.13 155.649C159.893 155.759 159.706 155.902 159.569 156.08C159.437 156.258 159.371 156.449 159.371 156.654H158.106C158.106 156.39 158.175 156.128 158.312 155.868C158.448 155.608 158.644 155.374 158.899 155.164C159.159 154.95 159.469 154.781 159.829 154.658C160.194 154.531 160.599 154.467 161.046 154.467C161.584 154.467 162.058 154.558 162.468 154.74C162.882 154.923 163.206 155.198 163.438 155.567C163.675 155.932 163.794 156.39 163.794 156.941V160.387C163.794 160.633 163.814 160.895 163.855 161.173C163.901 161.451 163.967 161.69 164.054 161.891V162H162.734C162.671 161.854 162.62 161.66 162.584 161.419C162.548 161.173 162.529 160.945 162.529 160.735ZM162.748 157.516L162.762 158.404H161.483C161.123 158.404 160.802 158.434 160.52 158.493C160.237 158.548 160 158.632 159.809 158.746C159.617 158.86 159.471 159.004 159.371 159.177C159.271 159.345 159.221 159.544 159.221 159.771C159.221 160.004 159.273 160.216 159.378 160.407C159.483 160.599 159.64 160.751 159.85 160.865C160.064 160.975 160.326 161.029 160.636 161.029C161.023 161.029 161.365 160.947 161.661 160.783C161.957 160.619 162.192 160.419 162.365 160.182C162.543 159.945 162.639 159.715 162.652 159.491L163.192 160.1C163.16 160.291 163.074 160.503 162.933 160.735C162.791 160.968 162.602 161.191 162.365 161.405C162.133 161.615 161.855 161.79 161.531 161.932C161.212 162.068 160.852 162.137 160.451 162.137C159.95 162.137 159.51 162.039 159.132 161.843C158.758 161.647 158.466 161.385 158.257 161.057C158.052 160.724 157.949 160.353 157.949 159.942C157.949 159.546 158.027 159.197 158.182 158.896C158.337 158.591 158.56 158.338 158.852 158.138C159.143 157.933 159.494 157.778 159.904 157.673C160.314 157.568 160.772 157.516 161.278 157.516H162.748ZM170.801 157.81V158.835H166.891V157.81H170.801ZM167.157 154.604V162H165.893V154.604H167.157ZM171.826 154.604V162H170.555V154.604H171.826ZM178.881 157.81V158.835H174.971V157.81H178.881ZM175.237 154.604V162H173.973V154.604H175.237ZM179.906 154.604V162H178.635V154.604H179.906ZM182.982 157.146H185.204C185.801 157.146 186.305 157.251 186.715 157.461C187.125 157.666 187.435 157.951 187.645 158.315C187.859 158.675 187.966 159.086 187.966 159.546C187.966 159.888 187.907 160.209 187.788 160.51C187.67 160.806 187.492 161.066 187.255 161.289C187.022 161.512 186.733 161.688 186.387 161.815C186.045 161.938 185.651 162 185.204 162H182.06V154.604H183.324V160.961H185.204C185.569 160.961 185.86 160.895 186.079 160.763C186.298 160.631 186.455 160.46 186.551 160.25C186.646 160.04 186.694 159.822 186.694 159.594C186.694 159.37 186.646 159.152 186.551 158.938C186.455 158.723 186.298 158.546 186.079 158.404C185.86 158.258 185.569 158.186 185.204 158.186H182.982V157.146ZM190.598 154.604V162H189.333V154.604H190.598ZM193.667 154.604L195.287 157.297L196.928 154.604H198.411L195.991 158.254L198.486 162H197.023L195.314 159.225L193.605 162H192.136L194.624 158.254L192.211 154.604H193.667Z"
        fill="var(--xenon-color-text-base)"
        fillOpacity="0.45"
      />
    </svg>