<svg
      width="16"
      height="16"
      viewBox="0 0 16 16"
      fill="none"
      xmlns="http://www.w3.org/2000/svg"
    >
      <path
        fillRule="evenodd"
        clipRule="evenodd"
        d="M13.1397 1.82724C13.14 1.82724 13.1404 1.8276 13.1411 1.82831L14.1713 2.85867C14.172 2.85921 14.1722 2.85956 14.1723 2.8601C14.1724 2.86045 14.1724 2.86082 14.1723 2.86117C14.1723 2.86171 14.172 2.86206 14.1713 2.86278L9.03376 8.00028L14.1713 13.1378C14.172 13.1385 14.1722 13.1388 14.1723 13.1394C14.1725 13.1398 14.1725 13.1402 14.1723 13.1406C14.1723 13.141 14.172 13.1413 14.1713 13.1421L13.1409 14.1722C13.1404 14.173 13.14 14.1731 13.1397 14.1733C13.1392 14.1734 13.1388 14.1734 13.1384 14.1733C13.1379 14.1733 13.1375 14.173 13.1368 14.1722L7.9993 9.03474L2.8618 14.1722C2.86109 14.173 2.86073 14.1731 2.86019 14.1733C2.85979 14.1734 2.85935 14.1734 2.85894 14.1733C2.85859 14.1733 2.85823 14.173 2.85751 14.1722L1.82734 13.1419C1.82662 13.1413 1.82644 13.141 1.82627 13.1406C1.82614 13.1402 1.82614 13.1398 1.82627 13.1394C1.82627 13.1388 1.82662 13.1385 1.82734 13.1378L6.96484 8.00028L1.82734 2.86278C1.82662 2.86206 1.82644 2.86171 1.82627 2.86117C1.82614 2.86076 1.82614 2.86033 1.82627 2.85992C1.82627 2.85956 1.82662 2.85921 1.82734 2.85849L2.85769 1.82831C2.85823 1.8276 2.85859 1.82742 2.85894 1.82724C2.85935 1.82712 2.85979 1.82712 2.86019 1.82724C2.86073 1.82724 2.86109 1.8276 2.8618 1.82831L7.9993 6.96581L13.1368 1.82831C13.1375 1.8276 13.1379 1.82742 13.1384 1.82724C13.1388 1.82712 13.1392 1.82712 13.1397 1.82724Z"
        fill="currentColor"
        fillOpacity="0.45"
      />
    </svg>