<svg width="335" height="198" viewBox="0 0 335 198" fill="none" xmlns="http://www.w3.org/2000/svg">
    <g clipPath="url(#clip0_727_43374)">
    <g clipPath="url(#clip1_727_43374)">
        <path
        d="M142.73 1.59082C105.65 4.29082 65.18 9.19082 35.5 20.5908L44.87 84.0208C44.87 84.0208 102.4 63.4308 149.2 64.8608L142.73 1.59082Z"
        fill="#747F8D"
        fillOpacity="0.72"
        />
        <g opacity="0.8">
        <path
            d="M142.73 1.59082C105.65 4.29082 65.18 9.19082 35.5 20.5908L44.87 84.0208C44.87 84.0208 102.4 63.4308 149.2 64.8608L142.73 1.59082Z"
            fill="white" class="white-part"
        />
        </g>
        <path
        d="M140.06 56.4904C140.06 56.4904 139.94 56.5204 139.7 56.5604C139.44 56.6004 139.09 56.6404 138.65 56.7004C137.69 56.8204 136.34 56.9904 134.6 57.2104C132.84 57.4204 130.69 57.6804 128.2 58.0404C125.71 58.4004 122.87 58.7504 119.75 59.2704C107.24 61.2004 90.0299 64.4004 71.3199 69.2304C64.8199 70.9104 58.5499 72.6404 52.8199 74.4404L52.5399 74.5303L52.4999 74.2403C50.4999 59.7003 48.5599 47.1604 47.0699 38.2704C46.3099 33.8504 45.6999 30.3204 45.2799 27.8604C45.0699 26.6704 44.9099 25.7404 44.7899 25.0804C44.7399 24.7804 44.6999 24.5504 44.6699 24.3604C44.6499 24.2004 44.6399 24.1104 44.6499 24.1104C44.6499 24.1104 44.6799 24.1904 44.7199 24.3504C44.7599 24.5304 44.8099 24.7704 44.8799 25.0604C45.0199 25.7204 45.2099 26.6404 45.4499 27.8304C45.9299 30.2504 46.5999 33.7804 47.3799 38.2204C48.9499 47.1004 50.9599 59.6304 52.9999 74.1804L52.6799 73.9804C58.4299 72.1604 64.6899 70.4304 71.2099 68.7504C89.9299 63.9104 107.18 60.7704 119.71 58.9304C122.84 58.4304 125.69 58.1004 128.18 57.7704C130.67 57.4304 132.83 57.2003 134.59 57.0303C136.33 56.8503 137.69 56.7203 138.65 56.6203C139.09 56.5803 139.44 56.5503 139.71 56.5303C139.95 56.5103 140.07 56.5104 140.07 56.5204L140.06 56.4904Z"
        fill="#747F8D"
        fillOpacity="0.72"
        />
        <path
        d="M141.31 41.0709C141.31 41.0709 141.17 40.6309 140.88 39.8109C140.56 39.0009 139.99 37.8409 138.97 36.5309C137.95 35.2309 136.48 33.8009 134.47 32.5909C133.98 32.2609 133.42 32.0309 132.87 31.7409C132.29 31.5209 131.7 31.2409 131.06 31.0909C129.8 30.7109 128.39 30.5009 126.94 30.6909C125.5 30.8609 124.02 31.3809 122.74 32.3409C121.45 33.2809 120.33 34.5509 119.38 35.9909C117.43 38.8809 116.16 42.4009 114.67 46.0509C113.88 47.8509 112.86 49.7209 111.18 51.0509C110.35 51.7109 109.37 52.2409 108.29 52.4409C107.2 52.6509 106.05 52.4909 105.03 52.0609C100.81 50.3909 98.9298 45.5209 94.6598 44.0409C92.5698 43.3309 90.2398 43.6109 88.3298 44.5609C87.3698 45.0409 86.5098 45.7009 85.8198 46.5009C85.1298 47.3009 84.6198 48.2409 84.1498 49.1909C83.1998 51.0709 82.4798 53.1609 80.8698 54.6309C80.0798 55.3509 79.0598 55.8509 77.9898 55.9309C76.9298 56.0209 75.8798 55.7409 74.9798 55.2809C73.1698 54.3409 71.8198 52.8209 70.8398 51.2109C69.8798 49.5609 69.2898 47.8409 68.6498 46.2209C68.0198 44.5909 67.3598 43.0409 66.4798 41.7109C65.5998 40.3809 64.4598 39.3009 63.1598 38.6309C60.5598 37.2509 57.6498 37.4109 55.5598 38.4109C53.3998 39.3309 51.7898 40.6309 50.7298 41.8909C49.6698 43.1609 49.1698 44.3709 48.9198 45.2009C48.6598 46.0309 48.6298 46.5009 48.5898 46.4909C48.5898 46.4909 48.5898 46.0209 48.8198 45.1709C49.0398 44.3209 49.5198 43.0709 50.5698 41.7609C51.6198 40.4509 53.2498 39.1109 55.4398 38.1409C57.5798 37.0909 60.6098 36.8809 63.3298 38.3009C64.6898 38.9909 65.8898 40.1109 66.8098 41.4809C67.7298 42.8509 68.4098 44.4309 69.0498 46.0609C69.6998 47.6809 70.2998 49.4009 71.2298 50.9709C72.1798 52.5209 73.4898 53.9809 75.1998 54.8509C76.0498 55.2809 76.9998 55.5209 77.9498 55.4409C78.8998 55.3709 79.8098 54.9209 80.5398 54.2609C82.0198 52.9209 82.7398 50.8709 83.6998 48.9609C84.1798 48.0009 84.6998 47.0209 85.4398 46.1609C86.1698 45.3009 87.0898 44.6109 88.0998 44.1009C90.1298 43.0909 92.5898 42.7909 94.8298 43.5509C97.0998 44.3009 98.7298 46.0509 100.24 47.6309C101.74 49.2309 103.29 50.8009 105.22 51.5909C106.17 51.9909 107.21 52.1309 108.19 51.9409C109.18 51.7609 110.09 51.2809 110.87 50.6609C112.45 49.4109 113.45 47.6309 114.23 45.8609C115.72 42.2509 117.02 38.6809 119.02 35.7509C120 34.2809 121.16 32.9809 122.5 32.0109C123.83 31.0209 125.39 30.4809 126.9 30.3209C128.41 30.1409 129.87 30.3709 131.16 30.7709C131.82 30.9309 132.41 31.2309 133.01 31.4609C133.57 31.7609 134.14 32.0109 134.63 32.3509C136.66 33.6109 138.13 35.0809 139.14 36.4209C140.15 37.7609 140.69 38.9609 140.99 39.7909C141.14 40.2009 141.19 40.5409 141.25 40.7609C141.3 40.9809 141.32 41.0909 141.32 41.0909L141.31 41.0709Z"
        fill="#747F8D"
        fillOpacity="0.72"
        />
        <path
        d="M43.0601 32.7506C43.0901 32.8906 42.6001 33.1006 41.9801 33.2206C41.3601 33.3406 40.8301 33.3206 40.8001 33.1806C40.7701 33.0406 41.2601 32.8306 41.8801 32.7106C42.5001 32.5906 43.0301 32.6106 43.0601 32.7506Z"
        fill="#747F8D"
        fillOpacity="0.72"
        />
        <path
        d="M44.7 44.3305C44.76 44.4605 44.4 44.7605 43.89 45.0005C43.38 45.2405 42.92 45.3205 42.86 45.1905C42.8 45.0605 43.16 44.7605 43.67 44.5205C44.18 44.2805 44.64 44.2005 44.7 44.3305Z"
        fill="#747F8D"
        fillOpacity="0.72"
        />
        <path
        d="M46.7499 56.991C46.7999 57.131 46.4199 57.381 45.9099 57.561C45.3999 57.741 44.9499 57.771 44.8999 57.641C44.8499 57.501 45.2299 57.251 45.7399 57.071C46.2499 56.891 46.6999 56.861 46.7499 56.991Z"
        fill="#747F8D"
        fillOpacity="0.72"
        />
        <path
        d="M49.2099 69.4307C49.2499 69.5707 48.8299 69.8207 48.2599 70.0007C47.6899 70.1807 47.1999 70.2107 47.1599 70.0707C47.1199 69.9307 47.5399 69.6807 48.1099 69.5007C48.6799 69.3207 49.1699 69.2907 49.2099 69.4307Z"
        fill="#747F8D"
        fillOpacity="0.72"
        />
        <path
        d="M119.13 9.65121C119.13 9.65121 119.56 9.50121 120.34 9.38121C121.14 9.24121 122.3 9.07121 123.79 8.86121C126.76 8.44121 131 7.89121 136.05 7.27121L136.29 7.24121L136.31 7.48121C136.7 11.7412 137.16 16.6412 137.64 21.8412L137.66 22.0612L137.68 22.3112L137.43 22.3412C131.33 23.0912 125.64 23.7812 120.85 24.3712L120.63 24.4012L120.61 24.1812C120.15 19.8312 119.76 16.2012 119.48 13.5912C119.36 12.3812 119.27 11.4012 119.2 10.6712C119.14 10.0012 119.12 9.65121 119.14 9.66121C119.16 9.67121 119.22 10.0412 119.32 10.7312C119.42 11.4712 119.56 12.4512 119.72 13.6812C120.05 16.2612 120.5 19.8412 121.05 24.1312L120.8 23.9412C125.58 23.3312 131.26 22.6112 137.37 21.8312L137.14 22.1112L137.12 21.8912C136.66 16.6912 136.23 11.7812 135.85 7.53121L136.11 7.74121C126.59 8.82121 121.01 9.45121 119.14 9.67121L119.13 9.65121Z"
        fill="#747F8D"
        fillOpacity="0.72"
        />
        <path
        d="M134.52 12.1816C134.52 12.3316 131.67 12.3316 128.19 12.7116C124.71 13.0716 121.92 13.6716 121.89 13.5216C121.85 13.3916 124.61 12.5616 128.14 12.2016C131.66 11.8216 134.54 12.0616 134.53 12.2016L134.52 12.1816Z"
        fill="#747F8D"
        fillOpacity="0.72"
        />
        <path
        d="M134.7 15.891C134.7 16.041 132.04 16.141 128.79 16.461C125.53 16.771 122.91 17.181 122.88 17.031C122.85 16.901 125.46 16.251 128.74 15.941C132.02 15.621 134.7 15.751 134.7 15.891Z"
        fill="#747F8D"
        fillOpacity="0.72"
        />
        <path
        d="M130.73 19.1414C130.75 19.2814 129.24 19.5914 127.36 19.8314C125.48 20.0714 123.94 20.1514 123.92 20.0014C123.9 19.8614 125.41 19.5514 127.29 19.3114C129.17 19.0714 130.71 18.9914 130.73 19.1414Z"
        fill="#747F8D"
        fillOpacity="0.72"
        />
        <path
        d="M302.45 20.2504C266.14 9.19036 235.52 -0.259642 194.4 0.000358211L188.12 64.6304C230.83 68.4104 245.1 71.2104 284.54 85.4804L302.45 20.2504Z"
        fill="#747F8D"
        fillOpacity="0.72"
        />
        <g opacity="0.8">
        <path
            d="M302.45 20.2504C266.14 9.19036 235.52 -0.259642 194.4 0.000358211L188.12 64.6304C230.83 68.4104 245.1 71.2104 284.54 85.4804L302.45 20.2504Z"
            fill="white" class="white-part"
        />
        </g>
        <path
        d="M220.26 31.3708L221.86 17.6608C218.05 17.2208 213.98 18.3308 210.67 20.7608C206.76 23.6108 203.91 28.2808 203.79 34.3208C203.78 34.9808 203.79 35.6607 203.85 36.3507C203.85 36.3707 203.85 36.3808 203.85 36.4008L219.87 34.6007L220.27 31.3808L220.26 31.3708Z"
        fill="#747F8D"
        fillOpacity="0.72"
        />
        <path
        d="M236.82 29.1204C235.24 24.0304 231.43 19.6504 225.41 18.2504C225.25 18.2104 225.09 18.1804 224.92 18.1404C224.82 18.1204 224.71 18.1004 224.61 18.0804C224.3 18.0204 223.99 17.9804 223.68 17.9404C223.67 17.9404 223.65 17.9404 223.64 17.9404C223.63 17.9404 223.61 17.9404 223.6 17.9404L222 31.6504L221.62 34.8704L236.74 40.3904H236.76C237.14 39.2604 237.4 38.0804 237.54 36.8804C237.84 34.3104 237.6 31.6404 236.82 29.1304V29.1204Z"
        fill="#747F8D"
        fillOpacity="0.72"
        />
        <g opacity="0.3">
        <path
            d="M236.82 29.1204C235.24 24.0304 231.43 19.6504 225.41 18.2504C225.25 18.2104 225.09 18.1804 224.92 18.1404C224.82 18.1204 224.71 18.1004 224.61 18.0804C224.3 18.0204 223.99 17.9804 223.68 17.9404C223.67 17.9404 223.65 17.9404 223.64 17.9404C223.63 17.9404 223.61 17.9404 223.6 17.9404L222 31.6504L221.62 34.8704L236.74 40.3904H236.76C237.14 39.2604 237.4 38.0804 237.54 36.8804C237.84 34.3104 237.6 31.6404 236.82 29.1304V29.1204Z"
            fill="black" class="white-part"
        />
        </g>
        <path
        d="M220.49 36.4004L204.47 38.2004C205.14 45.9604 210.8 52.3904 218.4 53.3204C226.04 54.2604 233.13 49.3404 235.62 41.9204L220.5 36.4004"
        fill="#747F8D"
        fillOpacity="0.72"
        />
        <path
        d="M288.42 32.5703C288.42 32.5703 287.9 32.4003 287.01 32.0003C286.12 31.6003 284.82 31.0303 283.21 30.3503C279.98 29.0003 275.46 27.2903 270.33 25.8203C265.2 24.3603 260.45 23.4203 257 22.8703C255.27 22.5903 253.87 22.3903 252.9 22.2603C251.93 22.1303 251.39 22.0403 251.4 22.0003C251.4 21.9603 251.95 21.9903 252.92 22.0603C253.9 22.1303 255.31 22.2703 257.05 22.5103C260.53 22.9703 265.31 23.8603 270.47 25.3303C275.63 26.8103 280.16 28.5703 283.36 30.0203C284.96 30.7403 286.24 31.3603 287.11 31.8203C287.98 32.2803 288.45 32.5403 288.44 32.5703H288.42Z"
        fill="#747F8D"
        fillOpacity="0.72"
        />
        <path
        d="M287.32 39.3203C287.32 39.3203 286.8 39.1503 285.91 38.7503C285.02 38.3503 283.72 37.7803 282.1 37.1003C278.87 35.7503 274.35 34.0403 269.22 32.5703C264.09 31.1103 259.34 30.1703 255.89 29.6203C254.16 29.3403 252.76 29.1403 251.79 29.0103C250.82 28.8803 250.28 28.7903 250.29 28.7503C250.29 28.7103 250.84 28.7403 251.81 28.8103C252.79 28.8803 254.2 29.0203 255.94 29.2603C259.42 29.7203 264.2 30.6103 269.36 32.0803C274.52 33.5603 279.05 35.3203 282.25 36.7703C283.85 37.4903 285.13 38.1103 286 38.5703C286.87 39.0303 287.34 39.2903 287.33 39.3203H287.32Z"
        fill="#747F8D"
        fillOpacity="0.72"
        />
        <path
        d="M286.22 46.0703C286.22 46.0703 285.7 45.9003 284.81 45.5003C283.92 45.1003 282.62 44.5303 281 43.8503C277.77 42.5003 273.25 40.7903 268.12 39.3203C262.99 37.8603 258.24 36.9203 254.79 36.3703C253.06 36.0903 251.66 35.8903 250.69 35.7603C249.72 35.6303 249.18 35.5403 249.19 35.5003C249.19 35.4603 249.74 35.4903 250.71 35.5603C251.69 35.6303 253.1 35.7703 254.84 36.0103C258.32 36.4703 263.1 37.3603 268.26 38.8303C273.42 40.3103 277.95 42.0703 281.15 43.5203C282.75 44.2403 284.03 44.8603 284.9 45.3203C285.77 45.7803 286.24 46.0403 286.23 46.0703H286.22Z"
        fill="#747F8D"
        fillOpacity="0.72"
        />
        <path
        d="M284.02 52.8103C284.02 52.8103 283.52 52.6403 282.65 52.2403C281.79 51.8403 280.53 51.2703 278.97 50.6003C275.85 49.2503 271.46 47.5503 266.48 46.0803C261.5 44.6203 256.89 43.6703 253.53 43.1203C251.85 42.8403 250.49 42.6403 249.54 42.5103C248.6 42.3803 248.08 42.2903 248.08 42.2503C248.08 42.2103 248.61 42.2403 249.56 42.3103C250.51 42.3803 251.89 42.5303 253.58 42.7603C256.96 43.2203 261.61 44.1103 266.62 45.5803C271.62 47.0603 276.02 48.8303 279.11 50.2703C280.66 50.9903 281.9 51.6103 282.73 52.0703C283.57 52.5203 284.03 52.7903 284.01 52.8203L284.02 52.8103Z"
        fill="#747F8D"
        fillOpacity="0.72"
        />
        <path
        d="M279.24 58.19C279.24 58.19 278.78 58.05 278 57.7C277.13 57.31 276.02 56.82 274.7 56.23C271.9 55.02 268 53.41 263.53 52.13C259.06 50.86 254.89 50.16 251.88 49.72C250.45 49.52 249.25 49.36 248.3 49.22C247.45 49.1 246.99 49.02 246.99 48.99C246.99 48.95 247.47 48.97 248.32 49.02C249.17 49.07 250.41 49.18 251.93 49.35C254.97 49.7 259.17 50.35 263.68 51.63C268.19 52.92 272.09 54.59 274.86 55.9C276.24 56.56 277.35 57.11 278.1 57.52C278.85 57.92 279.26 58.16 279.25 58.19H279.24Z"
        fill="#747F8D"
        fillOpacity="0.72"
        />
        <path
        d="M263.11 58.9599C263.09 59.0299 262.11 58.7899 260.53 58.4299C258.95 58.0599 256.76 57.5899 254.32 57.1699C251.88 56.7399 249.65 56.4399 248.04 56.2099C246.43 55.9899 245.43 55.8299 245.44 55.7599C245.44 55.6899 246.46 55.7099 248.08 55.8499C249.7 55.9899 251.95 56.2299 254.4 56.6599C256.86 57.0799 259.05 57.6199 260.62 58.0799C262.19 58.5399 263.13 58.9099 263.11 58.9699V58.9599Z"
        fill="#747F8D"
        fillOpacity="0.72"
        />
        <path
        d="M200.7 7.6602C200.7 7.6602 200.97 7.6402 201.53 7.6202C202.12 7.6002 202.95 7.5702 204.03 7.5402C206.24 7.4902 209.43 7.5202 213.51 7.7502C221.64 8.3002 233.32 9.6702 246.81 13.7102L246.99 13.7602L246.96 13.9502C244.46 28.2702 241.48 45.3002 238.3 63.5302C238.17 64.2702 238.04 65.0002 237.91 65.7302L237.86 66.0102L237.59 65.9402C230 63.9502 222.52 62.4602 215.36 61.3502C208.2 60.2502 201.35 59.4702 194.98 59.0702L194.74 59.0502L194.77 58.8102C196.52 43.5202 197.99 30.7202 199.02 21.7102C199.54 17.2502 199.96 13.7402 200.24 11.3102C200.38 10.1302 200.49 9.2202 200.57 8.5802C200.61 8.2902 200.64 8.0602 200.66 7.8902C200.68 7.7402 200.7 7.6602 200.7 7.6602C200.7 7.6602 200.7 7.7502 200.69 7.9102C200.67 8.0902 200.65 8.3302 200.62 8.6302C200.55 9.2802 200.46 10.2102 200.34 11.4102C200.08 13.8502 199.71 17.3902 199.24 21.8702C198.27 30.8502 196.88 43.6202 195.23 58.8702L195.01 58.6202C201.4 59.0102 208.26 59.7702 215.44 60.8602C222.62 61.9602 230.12 63.4402 237.73 65.4402L237.41 65.6502C237.54 64.9302 237.67 64.1902 237.8 63.4502C241.01 45.2302 244.01 28.2102 246.53 13.8902L246.68 14.1402C233.27 10.0802 221.61 8.6302 213.5 8.0202C209.44 7.7502 206.22 7.6802 204.06 7.6802C202.99 7.6802 202.16 7.6802 201.58 7.6802C201.01 7.6802 200.71 7.6702 200.71 7.6702L200.7 7.6602Z"
        fill="#747F8D"
        fillOpacity="0.72"
        />
    </g>
    <g clipPath="url(#clip2_727_43374)">
        <path
        d="M235.01 191.06C196.24 201.32 158.87 200.55 118.14 191.06L113.38 116.61C155.47 124.8 197.72 123.77 235.01 114.85V191.06Z"
        fill="#747F8D"
        fillOpacity="0.72"
        />
        <g opacity="0.8">
        <path
            d="M235.01 191.06C196.24 201.32 158.87 200.55 118.14 191.06L113.38 116.61C155.47 124.8 197.72 123.77 235.01 114.85V191.06Z"
            fill="white" class="white-part"
        />
        </g>
        <path
        d="M229 179.739C229 179.739 228.92 179.789 228.76 179.859C228.57 179.939 228.33 180.039 228.03 180.169C227.38 180.429 226.44 180.849 225.19 181.289C222.71 182.229 219.06 183.449 214.46 184.659C205.29 187.109 192.19 189.059 177.68 188.859C163.16 188.669 150.14 186.679 140.82 184.919C136.16 184.029 132.4 183.219 129.82 182.619C128.53 182.329 127.53 182.069 126.85 181.909C126.54 181.829 126.28 181.759 126.08 181.709C125.91 181.659 125.82 181.629 125.82 181.619C125.82 181.619 125.91 181.619 126.09 181.649C126.3 181.689 126.55 181.739 126.87 181.799C127.59 181.949 128.59 182.159 129.86 182.419C132.46 182.959 136.22 183.719 140.88 184.559C150.2 186.229 163.21 188.159 177.68 188.349C192.14 188.549 205.2 186.669 214.37 184.319C218.96 183.169 222.62 181.999 225.12 181.119C226.38 180.699 227.33 180.309 227.99 180.089C228.3 179.979 228.54 179.899 228.74 179.829C228.91 179.769 229 179.749 229 179.759V179.739Z"
        fill="#747F8D"
        fillOpacity="0.72"
        />
        <path
        d="M172.04 182.779C167.18 184.219 162.18 183.839 157.11 182.279V155.779C162.09 154.779 167.06 154.779 172.04 155.779V182.779Z"
        fill="#747F8D"
        fillOpacity="0.72"
        />
        <path
        d="M196.13 181.2C196.13 181.2 196.12 181.13 196.11 181C196.11 180.84 196.1 180.66 196.09 180.42C196.08 179.88 196.06 179.14 196.03 178.21C195.99 176.25 195.94 173.47 195.87 169.98C195.76 162.95 195.62 153.11 195.44 141.7L195.64 141.94C190.89 140.96 185.54 140.92 180.19 141.95L180.4 141.69C180.4 141.86 180.4 142.04 180.4 142.22C180.56 157.88 180.7 172.03 180.8 182.13L180.66 181.95C183.05 182.45 185.24 182.71 187.17 182.74C189.1 182.78 190.75 182.59 192.08 182.34C193.41 182.09 194.42 181.76 195.09 181.55C195.4 181.44 195.65 181.36 195.85 181.29C196.02 181.23 196.12 181.2 196.13 181.21C196.14 181.22 196.06 181.25 195.89 181.33C195.69 181.41 195.44 181.52 195.13 181.65C194.46 181.9 193.46 182.25 192.12 182.54C190.78 182.82 189.11 183.04 187.16 183.03C185.21 183.03 182.99 182.79 180.58 182.31L180.44 182.28V182.13C180.3 172.03 180.1 157.89 179.88 142.23C179.88 142.05 179.88 141.87 179.88 141.7V141.48L180.09 141.44C185.5 140.4 190.92 140.45 195.74 141.45L195.94 141.49V141.69C196.03 153.15 196.1 163.04 196.15 170.1C196.15 173.57 196.17 176.34 196.17 178.29C196.17 179.21 196.17 179.93 196.16 180.46C196.16 180.68 196.16 180.86 196.15 181.01C196.15 181.13 196.15 181.19 196.13 181.19V181.2Z"
        fill="#747F8D"
        fillOpacity="0.72"
        />
        <path
        d="M219.07 178.08C215.07 180.24 209.81 180.53 204.14 180.2V136.43C209.22 135.35 214.22 135.15 219.07 136.43V178.07V178.08Z"
        fill="#747F8D"
        fillOpacity="0.72"
        />
        <path
        d="M148.33 180.609C148.33 180.609 148.3 180.199 148.28 179.489C148.27 178.719 148.25 177.699 148.22 176.429C148.19 173.769 148.15 170.079 148.1 165.679L148.25 165.889C144.25 164.419 139.25 163.029 133.88 163.499H133.85L134.09 163.239C134.08 168.699 134.06 173.819 134.05 178.169L133.91 177.959C135.93 178.819 137.91 179.269 139.67 179.599C141.44 179.919 142.99 180.099 144.28 180.229C145.52 180.329 146.51 180.419 147.27 180.479C147.93 180.529 148.31 180.579 148.33 180.589C148.35 180.599 147.99 180.619 147.27 180.609C146.58 180.599 145.56 180.569 144.27 180.479C142.98 180.389 141.41 180.239 139.62 179.949C137.84 179.639 135.83 179.209 133.75 178.359L133.61 178.299V178.149C133.6 173.799 133.59 168.679 133.57 163.219V162.979L133.81 162.959H133.84C139.34 162.479 144.4 163.919 148.42 165.439L148.57 165.499V165.659C148.52 170.119 148.48 173.849 148.45 176.549C148.43 177.799 148.41 178.799 148.39 179.559C148.37 180.249 148.36 180.599 148.34 180.589L148.33 180.609Z"
        fill="#747F8D"
        fillOpacity="0.72"
        />
        <path
        d="M155.36 141.89C155.36 141.96 154.25 142.04 152.44 142.07C150.63 142.1 148.14 142.07 145.39 141.9C142.64 141.74 140.15 141.48 138.36 141.24C136.57 141 135.47 140.79 135.48 140.72C135.48 140.65 136.6 140.72 138.4 140.87C140.2 141.02 142.67 141.21 145.42 141.38C148.16 141.54 150.65 141.64 152.45 141.7C154.25 141.77 155.37 141.81 155.37 141.89H155.36Z"
        fill="#747F8D"
        fillOpacity="0.72"
        />
        <path
        d="M153.13 145.14C153.13 145.21 152.15 145.2 150.57 145.13C148.99 145.06 146.81 144.92 144.4 144.73C141.99 144.55 139.81 144.35 138.24 144.18C136.67 144.01 135.7 143.87 135.71 143.8C135.71 143.73 136.7 143.74 138.28 143.81C139.86 143.88 142.04 144.02 144.44 144.21C146.84 144.39 149.02 144.59 150.59 144.76C152.16 144.93 153.13 145.07 153.13 145.14Z"
        fill="#747F8D"
        fillOpacity="0.72"
        />
        <path
        d="M158.59 149.41C158.59 149.41 158.59 149.08 158.6 148.48C158.63 147.84 158.66 146.98 158.7 145.9C158.81 143.64 158.96 140.46 159.14 136.55L159.33 136.75C152.15 136.84 142.37 136.5 131.7 135.22C131.44 135.44 132.05 134.92 131.99 134.98V134.99V135.03V135.08V135.19V135.4L131.95 135.82L131.9 136.66C131.87 137.22 131.83 137.77 131.8 138.33C131.74 139.43 131.67 140.53 131.61 141.6C131.48 143.75 131.36 145.83 131.24 147.82L131.02 147.56C139.01 148.54 145.91 148.96 150.81 149.15C153.22 149.22 155.15 149.28 156.54 149.32C157.16 149.34 157.66 149.36 158.05 149.37C158.4 149.39 158.59 149.4 158.6 149.41C158.6 149.42 158.44 149.43 158.09 149.45C157.75 149.46 157.21 149.49 156.54 149.49C155.21 149.51 153.26 149.51 150.8 149.46C145.9 149.36 138.98 149 130.96 148.05L130.73 148.02V147.79C130.86 145.8 130.97 143.72 131.09 141.57C131.15 140.5 131.21 139.4 131.28 138.3C131.31 137.75 131.34 137.19 131.38 136.63L131.43 135.79L131.45 135.37V135.16L131.47 135.05V135V134.97V134.95C131.41 135 132.02 134.48 131.76 134.7C142.4 135.98 152.15 136.37 159.32 136.37H159.52L159.51 136.57C159.24 140.52 159.02 143.73 158.86 146.01C158.78 147.07 158.71 147.92 158.67 148.54C158.62 149.11 158.59 149.41 158.58 149.39L158.59 149.41Z"
        fill="#747F8D"
        fillOpacity="0.72"
        />
        <path
        d="M162 155.029C161.87 155.099 161.04 153.889 160.08 152.359C159.11 150.819 158.47 149.479 158.6 149.409C158.73 149.339 159.56 150.549 160.52 152.079C161.49 153.619 162.13 154.959 162 155.029Z"
        fill="#747F8D"
        fillOpacity="0.72"
        />
        <path
        d="M0 58.0801L12.67 134.75C12.67 134.75 32.01 170.97 83.42 179.14L75.12 110.7C75.12 110.7 27.59 95.9901 0 58.0801Z"
        fill="#747F8D"
        fillOpacity="0.72"
        />
        <g opacity="0.8">
        <path
            d="M0 58.0801L12.67 134.75C12.67 134.75 32.01 170.97 83.42 179.14L75.12 110.7C75.12 110.7 27.59 95.9901 0 58.0801Z"
            fill="white" class="white-part"
        />
        </g>
        <path
        d="M76.7901 173.67C76.7901 173.67 76.6801 173.65 76.4601 173.59C76.2201 173.52 75.9101 173.43 75.5101 173.32C74.6501 173.06 73.4401 172.69 71.8901 172.22C70.3201 171.72 68.3701 171.2 66.2101 170.32C65.1201 169.9 63.9501 169.46 62.7101 168.99C61.4701 168.52 60.1601 168.03 58.8301 167.39C56.1501 166.16 53.1801 164.91 50.1601 163.21C47.0701 161.65 43.9301 159.69 40.6401 157.59C34.1401 153.31 27.4801 147.8 21.5401 141.04C18.8901 137.97 16.5001 134.8 14.6501 131.43L14.6301 131.4V131.36C12.3101 116.42 10.2801 103.29 8.82013 93.8603C8.12013 89.1803 7.55013 85.4203 7.16013 82.8003C6.98013 81.5303 6.84013 80.5303 6.74013 79.8203C6.70013 79.5003 6.67013 79.2503 6.64013 79.0503C6.62013 78.8803 6.61013 78.7903 6.62013 78.7803C6.62013 78.7803 6.65013 78.8703 6.68013 79.0403C6.72013 79.2403 6.76013 79.4903 6.82013 79.8103C6.94013 80.5203 7.11013 81.5103 7.33013 82.7803C7.76013 85.4003 8.38013 89.1503 9.14013 93.8203C10.6401 103.24 12.7401 116.36 15.1201 131.29L15.1001 131.21C16.9101 134.5 19.3001 137.67 21.9301 140.71C27.8401 147.43 34.4501 152.92 40.9001 157.2C44.1601 159.29 47.2801 161.27 50.3501 162.83C53.3501 164.54 56.3101 165.81 58.9601 167.06C60.2801 167.71 61.5801 168.21 62.8201 168.69C64.0501 169.17 65.2101 169.63 66.3001 170.06C68.4501 170.97 70.3901 171.51 71.9401 172.04C73.4701 172.55 74.6801 172.95 75.5301 173.24C75.9201 173.37 76.2201 173.48 76.4601 173.56C76.6701 173.64 76.7701 173.68 76.7701 173.69L76.7901 173.67Z"
        fill="#747F8D"
        fillOpacity="0.72"
        />
        <path
        d="M72.2801 151.42C72.2801 151.42 72.2301 151.48 72.1001 151.58C71.9601 151.69 71.7801 151.84 71.5601 152.02C71.0501 152.42 70.3401 152.97 69.4201 153.68C67.5201 155.14 64.7801 157.23 61.3501 159.86L61.2201 159.96L61.1301 159.83C58.4101 156.07 55.0601 151.44 51.2601 146.17L51.5601 146.22C49.1801 147.91 46.6401 149.72 43.9901 151.61L43.7401 151.79L43.6301 151.5C40.6801 143.49 37.3601 134.5 33.8701 125.03C33.4001 123.75 32.9301 122.48 32.4701 121.22L32.9501 121.25C30.8301 125.46 28.7601 129.56 26.7801 133.49L26.5101 134.02L26.3201 133.46C20.9601 118 16.4001 104.86 13.4401 96.33L13.7101 96.31C12.9001 99.72 12.2601 102.42 11.8201 104.3C11.6001 105.2 11.4301 105.9 11.3001 106.4C11.2401 106.62 11.2001 106.79 11.1601 106.94C11.1301 107.06 11.1101 107.12 11.1001 107.12C11.1001 107.12 11.1001 107.06 11.1201 106.93C11.1501 106.79 11.1801 106.61 11.2301 106.38C11.3401 105.87 11.4901 105.16 11.6801 104.26C12.0901 102.38 12.6901 99.67 13.4401 96.24L13.5501 95.75L13.7201 96.22C16.7201 104.73 21.3601 117.84 26.8001 133.28L26.3401 133.25C28.3201 129.32 30.3701 125.22 32.4901 121L32.7601 120.46L32.9701 121.02C33.4301 122.28 33.9001 123.55 34.3701 124.83C37.8501 134.3 41.1401 143.3 44.0901 151.32L43.7301 151.21C46.3901 149.33 48.9401 147.53 51.3201 145.85L51.5001 145.73L51.6301 145.91C55.4001 151.2 58.7201 155.86 61.4101 159.64L61.1901 159.61C64.6601 157.03 67.4301 154.97 69.3501 153.54C70.2801 152.86 71.0101 152.32 71.5401 151.94C71.7701 151.77 71.9601 151.64 72.1101 151.54C72.2401 151.45 72.3101 151.41 72.3101 151.41L72.2801 151.42Z"
        fill="#747F8D"
        fillOpacity="0.72"
        />
        <path
        d="M70.4997 114.65C70.4997 114.65 70.1097 114.6 69.4197 114.41C68.7297 114.22 67.7497 113.92 66.5497 113.53C64.1397 112.73 60.8497 111.5 57.3197 109.91C53.7897 108.31 50.6897 106.66 48.4997 105.38C47.3997 104.74 46.5297 104.2 45.9397 103.81C45.3497 103.42 45.0297 103.19 45.0497 103.16C45.0697 103.13 45.4197 103.3 46.0497 103.64C46.7697 104.03 47.6497 104.5 48.6897 105.06C50.9197 106.26 54.0297 107.85 57.5497 109.44C61.0697 111.03 64.3197 112.31 66.6897 113.19C67.7897 113.6 68.7297 113.94 69.4997 114.23C70.1597 114.48 70.5297 114.63 70.5197 114.66L70.4997 114.65Z"
        fill="#747F8D"
        fillOpacity="0.72"
        />
        <path
        d="M72.54 117.83C72.52 117.9 71.57 117.75 70.06 117.39C68.55 117.03 66.47 116.45 64.24 115.65C62 114.85 60.03 113.99 58.63 113.3C57.23 112.62 56.4 112.13 56.43 112.06C56.46 111.99 57.35 112.37 58.78 112.96C60.21 113.55 62.19 114.36 64.41 115.15C66.63 115.94 68.67 116.58 70.16 117.03C71.64 117.48 72.56 117.75 72.55 117.82L72.54 117.83Z"
        fill="#747F8D"
        fillOpacity="0.72"
        />
        <path
        d="M52.2898 146.19C52.2898 146.82 51.8998 147.34 51.4298 147.34C50.9598 147.34 50.5698 146.83 50.5698 146.19C50.5698 145.55 50.9598 145.04 51.4298 145.04C51.8998 145.04 52.2898 145.55 52.2898 146.19Z"
        fill="#747F8D"
        fillOpacity="0.72"
        />
        <path
        d="M32.6198 123.1C33.0947 123.1 33.4798 122.585 33.4798 121.95C33.4798 121.315 33.0947 120.8 32.6198 120.8C32.1448 120.8 31.7598 121.315 31.7598 121.95C31.7598 122.585 32.1448 123.1 32.6198 123.1Z"
        fill="#747F8D"
        fillOpacity="0.72"
        />
        <path
        d="M14.49 96.6598C14.49 97.2898 14.1 97.8098 13.63 97.8098C13.16 97.8098 12.77 97.2998 12.77 96.6598C12.77 96.0198 13.16 95.5098 13.63 95.5098C14.1 95.5098 14.49 96.0198 14.49 96.6598Z"
        fill="#747F8D"
        fillOpacity="0.72"
        />
        <path
        d="M335.34 71.7402L328.99 149.64C328.99 149.64 310.45 182.95 259.39 184.22L265.7 105.79C265.7 105.79 310.24 103.98 335.34 71.7402Z"
        fill="#747F8D"
        fillOpacity="0.72"
        />
        <path
        d="M334.39 67.68C332.73 62.29 328.69 54.6 319.09 53L307.74 157.78C307.74 157.78 329.05 153.53 329.62 141.85C329.67 140.84 333.93 88.76 335 75.87C335.23 73.05 335.23 70.39 334.39 67.68Z"
        fill="#747F8D"
        fillOpacity="0.72"
        />
        <g opacity="0.8">
        <path
            d="M335.34 71.7402L328.99 149.64C328.99 149.64 310.45 182.95 259.39 184.22L265.7 105.79C265.7 105.79 310.24 103.98 335.34 71.7402Z"
            fill="white" class="white-part"
        />
        </g>
        <path
        d="M333.81 91.6001C328.72 98.9601 325.85 107.84 325.67 116.79C325.62 119.37 325.77 122.05 324.79 124.44C323.81 126.83 321.24 128.83 318.75 128.14C316.15 127.43 314.98 124.35 312.7 122.91C310.67 121.63 307.92 121.85 305.85 123.05C303.78 124.26 302.31 126.32 301.35 128.52C299.49 132.79 299.37 137.61 298 142.06C296.63 146.51 293.28 151 288.63 151.2C286.93 151.27 285.25 150.76 283.55 150.81C279.96 150.92 276.84 153.59 275.16 156.77C273.48 159.95 272.98 163.6 272.51 167.16C272.51 167.16 299.73 169.75 330.28 133.67L333.81 91.5801V91.6001Z"
        fill="#747F8D"
        fillOpacity="0.72"
        />
        <path
        d="M290.54 138.85C290.54 139.82 290.06 140.6 289.47 140.6C288.88 140.6 288.4 139.82 288.4 138.85C288.4 137.88 288.88 137.1 289.47 137.1C290.06 137.1 290.54 137.88 290.54 138.85Z"
        fill="#747F8D"
        fillOpacity="0.72"
        />
        <path
        d="M303.36 106.46C303.36 107.43 302.88 108.21 302.29 108.21C301.7 108.21 301.22 107.43 301.22 106.46C301.22 105.49 301.7 104.71 302.29 104.71C302.88 104.71 303.36 105.49 303.36 106.46Z"
        fill="#747F8D"
        fillOpacity="0.72"
        />
        <path
        d="M333.2 95.3604C333.2 95.3604 333.15 95.5204 333.02 95.8004C332.87 96.1204 332.68 96.5404 332.44 97.0604C331.9 98.2004 331.15 99.8004 330.2 101.82C328.22 105.94 325.43 111.76 322.08 118.73L321.97 118.96L321.75 118.82C316.09 115.24 309.51 111.08 302.5 106.64L302.88 106.52C302.63 107.14 302.35 107.81 302.08 108.49C297.32 120.15 292.96 130.82 289.65 138.93L289.57 139.14L289.38 139.03C284.58 136.33 280.66 134.16 277.94 132.68C276.58 131.94 275.52 131.37 274.79 131.01C274.45 130.84 274.17 130.71 273.96 130.6C273.77 130.53 273.67 130.48 273.67 130.47C273.7 130.37 275.3 131.06 278.05 132.49C280.81 133.91 284.75 136.03 289.58 138.69L289.3 138.79C292.58 130.67 296.9 119.98 301.62 108.3C301.89 107.63 302.17 106.95 302.42 106.33L302.54 106.04L302.8 106.21C309.81 110.67 316.37 114.85 322.02 118.45L321.69 118.54C325.1 111.61 327.96 105.82 329.97 101.72C330.97 99.7204 331.76 98.1404 332.33 97.0204C332.6 96.5104 332.81 96.1004 332.97 95.7904C333.12 95.5104 333.2 95.3704 333.21 95.3804L333.2 95.3604Z"
        fill="#747F8D"
        fillOpacity="0.72"
        />
    </g>
    </g>
    <defs>
    <clipPath id="clip0_727_43374">
        <rect width="335" height="198" fill="white" />
    </clipPath>
    <clipPath id="clip1_727_43374">
        <rect width="287.95" height="85.48" fill="white" transform="translate(22.5)" />
    </clipPath>
    <clipPath id="clip2_727_43374">
        <rect width="335.34" height="145.47" fill="white" transform="translate(0 53)" />
    </clipPath>
    </defs>
</svg>