<svg width="274" height="42" viewBox="0 0 274 42" fill="none" xmlns="http://www.w3.org/2000/svg">
<g clip-path="url(#clip0_398_9433)">
<path d="M18.8311 20.9854H0V39.9708H18.8311V20.9854Z" fill="#0679BB"/>
<path d="M37.6631 2H18.832V20.9854H37.6631V2Z" fill="#0679BB"/>
<path d="M56.4932 20.9854H37.6621V39.9708H56.4932V20.9854Z" fill="#0679BB"/>
</g>
<path d="M266.468 15.3055C266.468 15.1183 266.347 14.9591 266.103 14.8281C265.841 14.6783 265.308 14.4817 264.503 14.2383C263.698 14.0137 263.023 13.8171 262.481 13.6486C261.282 13.3303 260.262 12.8061 259.419 12.0759C258.596 11.327 258.184 10.3909 258.184 9.26754C258.184 8.18164 258.521 7.28297 259.195 6.57152C259.869 5.86007 260.646 5.38265 261.526 5.13926C262.424 4.87715 263.407 4.74609 264.474 4.74609C265.635 4.74609 266.777 4.98012 267.901 5.44818C269.043 5.89752 269.923 6.54344 270.541 7.38594L267.76 10.0539C266.768 9.04287 265.401 8.53737 263.66 8.53737C262.818 8.53737 262.396 8.7714 262.396 9.23945C262.396 9.38923 262.518 9.52029 262.761 9.63262C262.967 9.74496 263.548 9.93218 264.503 10.1943C265.233 10.4002 265.794 10.5687 266.188 10.6998C266.599 10.8121 267.133 11.0181 267.788 11.3176C268.444 11.6172 268.949 11.9261 269.305 12.2444C269.661 12.5627 269.979 12.9839 270.26 13.5081C270.541 14.0324 270.681 14.6221 270.681 15.2774C270.681 16.3633 270.353 17.2713 269.698 18.0015C269.061 18.713 268.294 19.2091 267.395 19.4899C266.515 19.752 265.551 19.8831 264.503 19.8831C263.08 19.8831 261.713 19.5835 260.402 18.9844C259.092 18.3853 258.128 17.5054 257.51 16.3446L260.739 14.1541C261.189 14.7345 261.807 15.2025 262.593 15.5582C263.398 15.914 264.184 16.0918 264.952 16.0918C265.963 16.0918 266.468 15.8297 266.468 15.3055Z" fill="var(--xenon-color-text)" fill-opacity="1"/>
<path d="M247.841 8.84636H245.061V5.05509H247.841V1.65698H251.913V5.05509H256.378V8.84636H251.913V13.5925C251.913 13.9295 251.922 14.2197 251.941 14.4631C251.978 14.6877 252.035 14.9405 252.11 15.2213C252.203 15.4834 252.353 15.6894 252.559 15.8392C252.784 15.9702 253.064 16.0357 253.401 16.0357C254.263 16.0357 255.096 15.7175 255.901 15.0809L257.586 17.9735C256.425 19.2092 254.899 19.827 253.008 19.827C251.398 19.827 250.134 19.387 249.217 18.5071C248.3 17.6271 247.841 16.3915 247.841 14.8001V8.84636Z" fill="var(--xenon-color-text)" fill-opacity="1"/>
<path d="M240.361 19.6584H236.289V5.055H240.361V5.64476C240.548 5.38265 240.876 5.1767 241.344 5.02692C241.812 4.85842 242.233 4.77417 242.608 4.77417C243.844 4.77417 244.798 5.19542 245.472 6.03793L243.394 9.29562C243.301 9.10839 243.113 8.96797 242.833 8.87436C242.552 8.76203 242.299 8.70586 242.074 8.70586C241.213 8.70586 240.642 9.21136 240.361 10.2224V19.6584Z" fill="var(--xenon-color-text)" fill-opacity="1"/>
<path d="M218.918 12.3286C218.918 10.082 219.676 8.25653 221.193 6.85236C222.709 5.44818 224.581 4.74609 226.809 4.74609C229.075 4.74609 230.966 5.45754 232.482 6.88044C233.999 8.28462 234.757 10.1007 234.757 12.3286C234.757 14.5753 233.989 16.4008 232.454 17.8049C230.919 19.1904 229.037 19.8831 226.809 19.8831C224.581 19.8831 222.709 19.1717 221.193 17.7488C219.676 16.3259 218.918 14.5192 218.918 12.3286ZM223.13 12.3286C223.13 13.3958 223.477 14.2945 224.17 15.0247C224.881 15.7361 225.761 16.0918 226.809 16.0918C227.933 16.0918 228.831 15.7455 229.505 15.0527C230.198 14.36 230.545 13.452 230.545 12.3286C230.545 11.224 230.198 10.316 229.505 9.60454C228.813 8.89309 227.914 8.53737 226.809 8.53737C225.705 8.53737 224.816 8.89309 224.141 9.60454C223.467 10.316 223.13 11.224 223.13 12.3286Z" fill="var(--xenon-color-text)" fill-opacity="1"/>
<path d="M207.629 25.2751H203.557V5.05501H207.629V5.81327C207.984 5.47626 208.481 5.21415 209.117 5.02693C209.754 4.83971 210.343 4.74609 210.886 4.74609C213.077 4.74609 214.818 5.43882 216.11 6.82427C217.421 8.20973 218.076 9.97899 218.076 12.1321C218.076 14.36 217.402 16.2135 216.054 17.6926C214.706 19.1529 212.946 19.8831 210.774 19.8831C209.052 19.8831 208.003 19.6397 207.629 19.1529V25.2751ZM210.437 8.53737C209.183 8.53737 208.247 9.08968 207.629 10.1943V14.8562C207.853 15.2306 208.219 15.5302 208.724 15.7548C209.23 15.9795 209.726 16.0918 210.212 16.0918C211.317 16.0918 212.197 15.7642 212.852 15.1089C213.526 14.4349 213.863 13.5456 213.863 12.441C213.863 11.2427 213.582 10.2973 213.021 9.60454C212.459 8.89309 211.598 8.53737 210.437 8.53737Z" fill="var(--xenon-color-text)" fill-opacity="1"/>
<path d="M199.214 14.4911L201.657 16.9624C200.103 18.9095 198.006 19.8831 195.366 19.8831C193.026 19.8831 191.125 19.1904 189.665 17.8049C188.205 16.4195 187.475 14.594 187.475 12.3286C187.475 10.0258 188.167 8.191 189.553 6.82427C190.957 5.43882 192.792 4.74609 195.057 4.74609C197.098 4.74609 198.764 5.36393 200.056 6.5996C201.367 7.83528 202.022 9.45476 202.022 11.4581C202.022 11.9823 201.947 12.7686 201.797 13.8171H191.743C191.931 14.5847 192.371 15.1557 193.063 15.5302C193.756 15.9046 194.542 16.0918 195.422 16.0918C197.07 16.0918 198.334 15.5582 199.214 14.4911ZM194.917 8.39695C193.363 8.39695 192.333 9.03351 191.828 10.3066H197.809C197.472 9.03351 196.508 8.39695 194.917 8.39695Z" fill="var(--xenon-color-text)" fill-opacity="1"/>
<path d="M175.244 12.9465V19.6585H170.891V0H178.838C181.253 0 183.182 0.505503 184.623 1.51651C186.065 2.52752 186.786 4.15636 186.786 6.40304C186.786 7.63871 186.43 8.80886 185.719 9.91348C185.007 10.9994 184.081 11.7483 182.938 12.1602L188.415 19.6585H183.163L178.361 12.9465H175.244ZM178.754 4.07211H175.244V8.87439H178.923C179.859 8.87439 180.645 8.6778 181.282 8.28464C181.937 7.89147 182.264 7.26427 182.264 6.40304C182.264 5.48565 181.937 4.86781 181.282 4.54953C180.645 4.23125 179.802 4.07211 178.754 4.07211Z" fill="var(--xenon-color-text)" fill-opacity="1"/>
<path d="M152.119 19.6584H148.047V5.055H152.119V6.0941C152.887 5.21415 154.216 4.77417 156.107 4.77417C159.945 4.77417 161.864 7.00213 161.864 11.458V19.6584H157.792V11.7108C157.792 10.6249 157.577 9.8292 157.146 9.3237C156.715 8.8182 155.976 8.56544 154.927 8.56544C153.561 8.56544 152.624 9.21137 152.119 10.5032V19.6584Z" fill="var(--xenon-color-text)" fill-opacity="1"/>
<path d="M130.676 12.3286C130.676 10.082 131.434 8.25653 132.951 6.85236C134.467 5.44818 136.339 4.74609 138.567 4.74609C140.833 4.74609 142.724 5.45754 144.24 6.88044C145.757 8.28462 146.515 10.1007 146.515 12.3286C146.515 14.5753 145.747 16.4008 144.212 17.8049C142.677 19.1904 140.795 19.8831 138.567 19.8831C136.339 19.8831 134.467 19.1717 132.951 17.7488C131.434 16.3259 130.676 14.5192 130.676 12.3286ZM134.888 12.3286C134.888 13.3958 135.235 14.2945 135.927 15.0247C136.639 15.7361 137.519 16.0918 138.567 16.0918C139.691 16.0918 140.589 15.7455 141.263 15.0527C141.956 14.36 142.302 13.452 142.302 12.3286C142.302 11.224 141.956 10.316 141.263 9.60454C140.571 8.89309 139.672 8.53737 138.567 8.53737C137.463 8.53737 136.573 8.89309 135.899 9.60454C135.225 10.316 134.888 11.224 134.888 12.3286Z" fill="var(--xenon-color-text)" fill-opacity="1"/>
<path d="M119.523 19.6584H115.451V5.055H119.523V6.0941C120.291 5.21415 121.62 4.77417 123.511 4.77417C127.349 4.77417 129.268 7.00213 129.268 11.458V19.6584H125.196V11.7108C125.196 10.6249 124.981 9.8292 124.55 9.3237C124.12 8.8182 123.38 8.56544 122.332 8.56544C120.965 8.56544 120.029 9.21137 119.523 10.5032V19.6584Z" fill="var(--xenon-color-text)" fill-opacity="1"/>
<path d="M111.108 14.4911L113.551 16.9624C111.997 18.9095 109.9 19.8831 107.261 19.8831C104.92 19.8831 103.02 19.1904 101.56 17.8049C100.099 16.4195 99.3691 14.594 99.3691 12.3286C99.3691 10.0258 100.062 8.191 101.447 6.82427C102.851 5.43882 104.686 4.74609 106.952 4.74609C108.992 4.74609 110.659 5.36393 111.951 6.5996C113.261 7.83528 113.916 9.45476 113.916 11.4581C113.916 11.9823 113.842 12.7686 113.692 13.8171H103.638C103.825 14.5847 104.265 15.1557 104.958 15.5302C105.65 15.9046 106.437 16.0918 107.317 16.0918C108.964 16.0918 110.228 15.5582 111.108 14.4911ZM106.811 8.39695C105.257 8.39695 104.228 9.03351 103.722 10.3066H109.704C109.367 9.03351 108.403 8.39695 106.811 8.39695Z" fill="var(--xenon-color-text)" fill-opacity="1"/>
<path d="M94.8448 0H100.125L93.0194 9.68881L100.349 19.6585H95.0414L90.4357 13.2273L85.8019 19.6585H80.4941L87.852 9.68881L80.8031 0H86.0547L90.4638 6.09412L94.8448 0Z" fill="var(--xenon-color-text)" fill-opacity="1"/>
<path d="M269.95 39.0361H269.037V31.7344H269.95V32.4365C270.072 32.1557 270.292 31.9404 270.61 31.7906C270.928 31.6408 271.251 31.5659 271.579 31.5659C272.206 31.5659 272.702 31.7906 273.067 32.2399L272.449 32.8437C272.225 32.5722 271.902 32.4365 271.48 32.4365C271.106 32.4365 270.778 32.5769 270.497 32.8578C270.226 33.1386 270.043 33.4756 269.95 33.8688V39.0361Z" fill="var(--xenon-color-text)" fill-opacity="0.88"/>
<path d="M265.901 37.0983L266.518 37.6459C266.2 38.1327 265.784 38.5118 265.269 38.7833C264.754 39.0454 264.202 39.1764 263.612 39.1764C262.451 39.1764 261.515 38.8254 260.803 38.1233C260.092 37.4212 259.736 36.5038 259.736 35.3711C259.736 34.2291 260.073 33.307 260.747 32.6049C261.421 31.9028 262.315 31.5518 263.429 31.5518C263.617 31.5518 263.874 31.5752 264.202 31.622C265.007 31.7811 265.639 32.1602 266.097 32.7593C266.556 33.3491 266.785 34.0512 266.785 34.8656C266.785 35.0903 266.767 35.3524 266.729 35.652H260.705C260.733 36.4851 261.019 37.1357 261.562 37.6038C262.114 38.0718 262.811 38.3058 263.654 38.3058C264.085 38.3058 264.506 38.1935 264.918 37.9688C265.33 37.7442 265.657 37.454 265.901 37.0983ZM263.359 32.4083C262.629 32.4083 262.02 32.6283 261.534 33.0683C261.047 33.5082 260.766 34.0886 260.691 34.8094H265.802C265.784 34.0512 265.554 33.4614 265.114 33.0402C264.684 32.6189 264.099 32.4083 263.359 32.4083Z" fill="var(--xenon-color-text)" fill-opacity="0.88"/>
<path d="M251.96 39.0361H251.047V31.7344H251.96V32.7454C252.549 31.9591 253.434 31.5659 254.613 31.5659C256.617 31.5659 257.618 32.6659 257.618 34.8657V39.0361H256.706V35.0061C256.706 33.2931 255.915 32.4365 254.333 32.4365C253.855 32.4365 253.387 32.5956 252.928 32.9139C252.479 33.2322 252.156 33.616 251.96 34.0654V39.0361Z" fill="var(--xenon-color-text)" fill-opacity="0.88"/>
<path d="M247.456 31.7344H248.369V38.5025C248.369 39.6165 248.083 40.4731 247.512 41.0722C246.941 41.6713 246.118 41.9709 245.041 41.9709C244.386 41.9709 243.759 41.8258 243.16 41.5356C242.57 41.2454 242.172 40.8241 241.966 40.2718L242.78 39.8927C242.968 40.2858 243.281 40.5854 243.721 40.7914C244.161 40.9973 244.62 41.1003 245.097 41.1003C245.865 41.1003 246.45 40.885 246.852 40.4543C247.255 40.0237 247.456 39.4199 247.456 38.643V38.1234C247.147 38.5166 246.806 38.7927 246.431 38.9519C246.057 39.1017 245.603 39.1765 245.069 39.1765C243.936 39.1765 243.042 38.8208 242.387 38.1094C241.732 37.3979 241.404 36.4852 241.404 35.3712C241.404 34.2666 241.746 33.3586 242.429 32.6471C243.122 31.9263 244.011 31.5659 245.097 31.5659C245.556 31.5659 246.005 31.6408 246.445 31.7906C246.885 31.9404 247.222 32.1697 247.456 32.4786V31.7344ZM245.21 38.306C245.696 38.306 246.155 38.1609 246.586 37.8707C247.016 37.5805 247.307 37.206 247.456 36.7473V33.6441C247.232 33.2509 246.918 32.9514 246.515 32.7454C246.113 32.5395 245.673 32.4365 245.196 32.4365C244.344 32.4365 243.66 32.722 243.145 33.2931C242.64 33.8547 242.387 34.5568 242.387 35.3993C242.387 36.2699 242.64 36.972 243.145 37.5056C243.651 38.0392 244.339 38.306 245.21 38.306Z" fill="var(--xenon-color-text)" fill-opacity="0.88"/>
<path d="M238.993 39.0361H238.08V31.7344H238.993V39.0361ZM237.926 29.4035C237.926 29.2537 237.991 29.1133 238.122 28.9822C238.244 28.8699 238.389 28.8137 238.558 28.8137C238.717 28.8137 238.857 28.8699 238.979 28.9822C239.101 29.1039 239.161 29.2443 239.161 29.4035C239.161 29.572 239.101 29.7218 238.979 29.8528C238.867 29.9745 238.726 30.0354 238.558 30.0354C238.38 30.0354 238.23 29.9792 238.108 29.8669C237.987 29.7452 237.926 29.5907 237.926 29.4035Z" fill="var(--xenon-color-text)" fill-opacity="0.88"/>
<path d="M234.723 37.0983C234.723 36.9017 234.667 36.7425 234.555 36.6208C234.452 36.4991 234.293 36.3728 234.077 36.2417C233.853 36.1294 233.314 35.9515 232.463 35.7081C231.564 35.4554 230.974 35.226 230.693 35.0201C230.132 34.6269 229.851 34.1542 229.851 33.6019C229.851 33.1151 229.996 32.7125 230.286 32.3943C230.586 32.076 230.937 31.856 231.339 31.7343C231.742 31.6126 232.182 31.5518 232.659 31.5518C233.193 31.5518 233.722 31.6641 234.246 31.8888C234.779 32.1041 235.191 32.4083 235.482 32.8015L234.822 33.3912C234.625 33.0917 234.307 32.8576 233.867 32.6891C233.427 32.5113 233.001 32.4223 232.589 32.4223C231.409 32.4223 230.82 32.7921 230.82 33.5316C230.82 33.775 230.937 33.9857 231.171 34.1635C231.414 34.3601 231.994 34.5895 232.912 34.8516C233.829 35.1137 234.461 35.3571 234.808 35.5817C235.397 35.9936 235.692 36.4945 235.692 37.0842C235.692 37.4587 235.603 37.791 235.425 38.0812C235.257 38.362 235.027 38.582 234.737 38.7411C234.447 38.8909 234.143 38.9986 233.825 39.0641C233.506 39.139 233.169 39.1764 232.814 39.1764C232.168 39.1764 231.531 39.0267 230.904 38.7271C230.286 38.4182 229.846 37.9969 229.584 37.4633L230.314 36.9298C230.548 37.3604 230.899 37.6974 231.367 37.9408C231.845 38.1841 232.346 38.3058 232.87 38.3058C233.151 38.3058 233.422 38.2731 233.684 38.2075C233.946 38.142 234.185 38.0156 234.4 37.8284C234.616 37.6318 234.723 37.3884 234.723 37.0983Z" fill="var(--xenon-color-text)" fill-opacity="0.88"/>
<path d="M226.969 37.0983L227.587 37.6459C227.269 38.1327 226.852 38.5118 226.337 38.7833C225.822 39.0454 225.27 39.1764 224.68 39.1764C223.519 39.1764 222.583 38.8254 221.872 38.1233C221.16 37.4212 220.805 36.5038 220.805 35.3711C220.805 34.2291 221.142 33.307 221.816 32.6049C222.49 31.9028 223.384 31.5518 224.498 31.5518C224.685 31.5518 224.942 31.5752 225.27 31.622C226.075 31.7811 226.707 32.1602 227.166 32.7593C227.624 33.3491 227.854 34.0512 227.854 34.8656C227.854 35.0903 227.835 35.3524 227.797 35.652H221.774C221.802 36.4851 222.087 37.1357 222.63 37.6038C223.182 38.0718 223.88 38.3058 224.722 38.3058C225.153 38.3058 225.574 38.1935 225.986 37.9688C226.398 37.7442 226.726 37.454 226.969 37.0983ZM224.427 32.4083C223.697 32.4083 223.089 32.6283 222.602 33.0683C222.115 33.5082 221.834 34.0886 221.76 34.8094H226.871C226.852 34.0512 226.623 33.4614 226.183 33.0402C225.752 32.6189 225.167 32.4083 224.427 32.4083Z" fill="var(--xenon-color-text)" fill-opacity="0.88"/>
<path d="M218.56 39.0361H217.648V38.0672C217.432 38.423 217.095 38.6944 216.637 38.8817C216.178 39.0689 215.715 39.1625 215.247 39.1625C214.133 39.1625 213.243 38.8115 212.579 38.1094C211.923 37.3979 211.596 36.4946 211.596 35.3993C211.596 34.3041 211.951 33.3913 212.663 32.6612C213.374 31.9216 214.268 31.5519 215.345 31.5519C216.365 31.5519 217.133 31.828 217.648 32.3803V28.7856H218.56V39.0361ZM215.331 38.2919C215.827 38.2919 216.281 38.1468 216.693 37.8566C217.114 37.5664 217.432 37.1873 217.648 36.7192V33.5879C217.142 32.8109 216.384 32.4225 215.373 32.4225C214.559 32.4225 213.885 32.7127 213.351 33.293C212.827 33.8641 212.565 34.5568 212.565 35.3712C212.565 36.2325 212.817 36.9345 213.323 37.4775C213.828 38.0204 214.498 38.2919 215.331 38.2919Z" fill="var(--xenon-color-text)" fill-opacity="0.88"/>
<path d="M204.301 39.0361H203.388V38.0672C203.173 38.423 202.836 38.6944 202.377 38.8817C201.918 39.0689 201.455 39.1625 200.987 39.1625C199.873 39.1625 198.983 38.8115 198.319 38.1094C197.664 37.3979 197.336 36.4946 197.336 35.3993C197.336 34.3041 197.692 33.3913 198.403 32.6612C199.115 31.9216 200.009 31.5519 201.085 31.5519C202.105 31.5519 202.873 31.828 203.388 32.3803V28.7856H204.301V39.0361ZM201.071 38.2919C201.567 38.2919 202.021 38.1468 202.433 37.8566C202.854 37.5664 203.173 37.1873 203.388 36.7192V33.5879C202.882 32.8109 202.124 32.4225 201.113 32.4225C200.299 32.4225 199.625 32.7127 199.091 33.293C198.567 33.8641 198.305 34.5568 198.305 35.3712C198.305 36.2325 198.558 36.9345 199.063 37.4775C199.569 38.0204 200.238 38.2919 201.071 38.2919Z" fill="var(--xenon-color-text)" fill-opacity="0.88"/>
<path d="M193.235 39.0361H192.322V31.7344H193.235V32.4365C193.357 32.1557 193.577 31.9404 193.895 31.7906C194.213 31.6408 194.536 31.5659 194.864 31.5659C195.491 31.5659 195.987 31.7906 196.352 32.2399L195.734 32.8437C195.51 32.5722 195.187 32.4365 194.766 32.4365C194.391 32.4365 194.063 32.5769 193.783 32.8578C193.511 33.1386 193.329 33.4756 193.235 33.8688V39.0361Z" fill="var(--xenon-color-text)" fill-opacity="0.88"/>
<path d="M184.414 33.2789L183.923 32.5768C184.269 32.2585 184.7 32.0105 185.215 31.8326C185.739 31.6454 186.249 31.5518 186.745 31.5518C187.719 31.5518 188.463 31.8045 188.978 32.31C189.493 32.8062 189.75 33.5363 189.75 34.5005V39.036H188.837V37.8284C188.547 38.2497 188.149 38.5726 187.644 38.7973C187.148 39.022 186.628 39.1343 186.085 39.1343C185.355 39.1343 184.732 38.9471 184.218 38.5726C183.703 38.1982 183.445 37.6599 183.445 36.9578C183.445 35.4788 184.63 34.7392 186.998 34.7392C187.709 34.7392 188.322 34.8141 188.837 34.9639C188.837 34.1214 188.669 33.4895 188.332 33.0683C188.004 32.6377 187.438 32.4223 186.633 32.4223C185.875 32.4223 185.135 32.7079 184.414 33.2789ZM184.99 37.9548C185.383 38.1795 185.832 38.2918 186.338 38.2918C186.843 38.2918 187.335 38.1373 187.812 37.8284C188.299 37.5195 188.641 37.131 188.837 36.663V35.7924C188.397 35.6426 187.826 35.5677 187.124 35.5677C185.308 35.5677 184.4 36.0124 184.4 36.9017C184.4 37.3697 184.597 37.7208 184.99 37.9548Z" fill="var(--xenon-color-text)" fill-opacity="0.88"/>
<path d="M174.049 35.3711C174.049 34.2478 174.414 33.3304 175.144 32.6189C175.874 31.9075 176.792 31.5518 177.896 31.5518C179.02 31.5518 179.942 31.9122 180.662 32.633C181.383 33.3538 181.744 34.2665 181.744 35.3711C181.744 36.4945 181.379 37.4119 180.648 38.1233C179.918 38.8254 179.001 39.1764 177.896 39.1764C176.773 39.1764 175.851 38.8207 175.13 38.1093C174.409 37.3884 174.049 36.4757 174.049 35.3711ZM175.018 35.3711C175.018 36.223 175.289 36.9251 175.832 37.4774C176.375 38.0297 177.063 38.3058 177.896 38.3058C178.748 38.3058 179.441 38.0297 179.974 37.4774C180.508 36.9251 180.775 36.223 180.775 35.3711C180.775 34.5192 180.503 33.8172 179.96 33.2649C179.427 32.7032 178.739 32.4223 177.896 32.4223C177.044 32.4223 176.352 32.7032 175.818 33.2649C175.285 33.8265 175.018 34.5286 175.018 35.3711Z" fill="var(--xenon-color-text)" fill-opacity="0.88"/>
<path d="M165.332 37.7443V28.7856H166.245V32.7735C166.872 31.9591 167.743 31.5519 168.857 31.5519C169.914 31.5519 170.743 31.9029 171.342 32.605C171.95 33.3071 172.255 34.187 172.255 35.2449C172.255 36.4337 171.918 37.3886 171.244 38.1094C170.57 38.8208 169.657 39.1765 168.505 39.1765C167.934 39.1765 167.345 39.0455 166.736 38.7834C166.128 38.5213 165.66 38.1749 165.332 37.7443ZM168.744 32.4225C168.239 32.4225 167.757 32.5722 167.298 32.8718C166.839 33.1714 166.488 33.5552 166.245 34.0232V37.323C166.516 37.6226 166.872 37.8613 167.312 38.0392C167.752 38.217 168.187 38.306 168.618 38.306C169.451 38.306 170.102 38.0251 170.57 37.4634C171.047 36.8924 171.286 36.181 171.286 35.3291C171.286 34.496 171.061 33.8032 170.612 33.2509C170.162 32.6986 169.54 32.4225 168.744 32.4225Z" fill="var(--xenon-color-text)" fill-opacity="0.88"/>
<path d="M157.106 39.0361H156.193V28.7856H157.106V32.7595C157.686 31.9638 158.543 31.5659 159.676 31.5659C161.726 31.5659 162.751 32.6705 162.751 34.8798V39.0361H161.838V34.9921C161.838 33.2884 161.052 32.4365 159.479 32.4365C158.946 32.4365 158.463 32.6003 158.033 32.928C157.612 33.2462 157.303 33.6581 157.106 34.1636V39.0361Z" fill="var(--xenon-color-text)" fill-opacity="0.88"/>
<path d="M152.991 37.0983C152.991 36.9017 152.935 36.7425 152.822 36.6208C152.719 36.4991 152.56 36.3728 152.345 36.2417C152.12 36.1294 151.582 35.9515 150.73 35.7081C149.831 35.4554 149.242 35.226 148.961 35.0201C148.399 34.6269 148.118 34.1542 148.118 33.6019C148.118 33.1151 148.263 32.7125 148.554 32.3943C148.853 32.076 149.204 31.856 149.607 31.7343C150.009 31.6126 150.449 31.5518 150.927 31.5518C151.46 31.5518 151.989 31.6641 152.513 31.8888C153.047 32.1041 153.459 32.4083 153.749 32.8015L153.089 33.3912C152.893 33.0917 152.574 32.8576 152.134 32.6891C151.694 32.5113 151.268 32.4223 150.857 32.4223C149.677 32.4223 149.087 32.7921 149.087 33.5316C149.087 33.775 149.204 33.9857 149.438 34.1635C149.682 34.3601 150.262 34.5895 151.179 34.8516C152.097 35.1137 152.729 35.3571 153.075 35.5817C153.665 35.9936 153.96 36.4945 153.96 37.0842C153.96 37.4587 153.871 37.791 153.693 38.0812C153.524 38.362 153.295 38.582 153.005 38.7411C152.715 38.8909 152.41 38.9986 152.092 39.0641C151.774 39.139 151.437 39.1764 151.081 39.1764C150.435 39.1764 149.799 39.0267 149.171 38.7271C148.554 38.4182 148.114 37.9969 147.852 37.4633L148.582 36.9298C148.816 37.3604 149.167 37.6974 149.635 37.9408C150.112 38.1841 150.613 38.3058 151.137 38.3058C151.418 38.3058 151.69 38.2731 151.952 38.2075C152.214 38.142 152.453 38.0156 152.668 37.8284C152.883 37.6318 152.991 37.3884 152.991 37.0983Z" fill="var(--xenon-color-text)" fill-opacity="0.88"/>
<path d="M140.461 33.2789L139.97 32.5768C140.316 32.2585 140.747 32.0105 141.261 31.8326C141.786 31.6454 142.296 31.5518 142.792 31.5518C143.766 31.5518 144.51 31.8045 145.025 32.31C145.54 32.8062 145.797 33.5363 145.797 34.5005V39.036H144.884V37.8284C144.594 38.2497 144.196 38.5726 143.691 38.7973C143.195 39.022 142.675 39.1343 142.132 39.1343C141.402 39.1343 140.779 38.9471 140.264 38.5726C139.75 38.1982 139.492 37.6599 139.492 36.9578C139.492 35.4788 140.676 34.7392 143.045 34.7392C143.756 34.7392 144.369 34.8141 144.884 34.9639C144.884 34.1214 144.716 33.4895 144.379 33.0683C144.051 32.6377 143.485 32.4223 142.68 32.4223C141.921 32.4223 141.182 32.7079 140.461 33.2789ZM141.037 37.9548C141.43 38.1795 141.879 38.2918 142.385 38.2918C142.89 38.2918 143.382 38.1373 143.859 37.8284C144.346 37.5195 144.688 37.131 144.884 36.663V35.7924C144.444 35.6426 143.873 35.5677 143.171 35.5677C141.355 35.5677 140.447 36.0124 140.447 36.9017C140.447 37.3697 140.644 37.7208 141.037 37.9548Z" fill="var(--xenon-color-text)" fill-opacity="0.88"/>
<path d="M137.349 39.0361H136.437V38.0672C136.221 38.423 135.884 38.6944 135.426 38.8817C134.967 39.0689 134.504 39.1625 134.036 39.1625C132.922 39.1625 132.032 38.8115 131.368 38.1094C130.712 37.3979 130.385 36.4946 130.385 35.3993C130.385 34.3041 130.74 33.3913 131.452 32.6612C132.163 31.9216 133.057 31.5519 134.134 31.5519C135.154 31.5519 135.922 31.828 136.437 32.3803V28.7856H137.349V39.0361ZM134.12 38.2919C134.616 38.2919 135.07 38.1468 135.482 37.8566C135.903 37.5664 136.221 37.1873 136.437 36.7192V33.5879C135.931 32.8109 135.173 32.4225 134.162 32.4225C133.348 32.4225 132.674 32.7127 132.14 33.293C131.616 33.8641 131.354 34.5568 131.354 35.3712C131.354 36.2325 131.606 36.9345 132.112 37.4775C132.617 38.0204 133.287 38.2919 134.12 38.2919Z" fill="var(--xenon-color-text)" fill-opacity="0.88"/>
<path d="M117.555 39.0361H116.643V31.7344H117.555V32.7454C118.145 31.9591 119.03 31.5659 120.209 31.5659C122.212 31.5659 123.214 32.6659 123.214 34.8657V39.0361H122.301V35.0061C122.301 33.2931 121.51 32.4365 119.928 32.4365C119.451 32.4365 118.983 32.5956 118.524 32.9139C118.075 33.2322 117.752 33.616 117.555 34.0654V39.0361Z" fill="var(--xenon-color-text)" fill-opacity="0.88"/>
<path d="M106.699 35.3711C106.699 34.2478 107.064 33.3304 107.794 32.6189C108.525 31.9075 109.442 31.5518 110.547 31.5518C111.67 31.5518 112.592 31.9122 113.313 32.633C114.034 33.3538 114.394 34.2665 114.394 35.3711C114.394 36.4945 114.029 37.4119 113.299 38.1233C112.569 38.8254 111.651 39.1764 110.547 39.1764C109.423 39.1764 108.501 38.8207 107.78 38.1093C107.06 37.3884 106.699 36.4757 106.699 35.3711ZM107.668 35.3711C107.668 36.223 107.94 36.9251 108.483 37.4774C109.025 38.0297 109.714 38.3058 110.547 38.3058C111.399 38.3058 112.091 38.0297 112.625 37.4774C113.158 36.9251 113.425 36.223 113.425 35.3711C113.425 34.5192 113.154 33.8172 112.611 33.2649C112.077 32.7032 111.389 32.4223 110.547 32.4223C109.695 32.4223 109.002 32.7032 108.468 33.2649C107.935 33.8265 107.668 34.5286 107.668 35.3711Z" fill="var(--xenon-color-text)" fill-opacity="0.88"/>
<path d="M98.9225 39.0361H98.0098V31.7344H98.9225V32.7454C99.5122 31.9591 100.397 31.5659 101.576 31.5659C103.58 31.5659 104.581 32.6659 104.581 34.8657V39.0361H103.669V35.0061C103.669 33.2931 102.878 32.4365 101.296 32.4365C100.818 32.4365 100.35 32.5956 99.8914 32.9139C99.442 33.2322 99.1191 33.616 98.9225 34.0654V39.0361Z" fill="var(--xenon-color-text)" fill-opacity="0.88"/>
<path d="M94.8733 37.0983L95.4912 37.6459C95.1729 38.1327 94.7563 38.5118 94.2414 38.7833C93.7266 39.0454 93.1743 39.1764 92.5845 39.1764C91.4237 39.1764 90.4876 38.8254 89.7762 38.1233C89.0647 37.4212 88.709 36.5038 88.709 35.3711C88.709 34.2291 89.046 33.307 89.72 32.6049C90.394 31.9028 91.288 31.5518 92.402 31.5518C92.5892 31.5518 92.8466 31.5752 93.1743 31.622C93.9793 31.7811 94.6112 32.1602 95.0699 32.7593C95.5286 33.3491 95.7579 34.0512 95.7579 34.8656C95.7579 35.0903 95.7392 35.3524 95.7018 35.652H89.6779C89.7059 36.4851 89.9915 37.1357 90.5344 37.6038C91.0867 38.0718 91.7841 38.3058 92.6266 38.3058C93.0572 38.3058 93.4785 38.1935 93.8904 37.9688C94.3023 37.7442 94.6299 37.454 94.8733 37.0983ZM92.3318 32.4083C91.6016 32.4083 90.9931 32.6283 90.5063 33.0683C90.0195 33.5082 89.7387 34.0886 89.6638 34.8094H94.775C94.7563 34.0512 94.527 33.4614 94.087 33.0402C93.6564 32.6189 93.0713 32.4083 92.3318 32.4083Z" fill="var(--xenon-color-text)" fill-opacity="0.88"/>
<path d="M86.3636 31.7344H87.4729L84.6926 35.2448L87.6274 39.0361H86.4759L84.0467 35.8767L81.5613 39.0361H80.4941L83.4148 35.2729L80.6486 31.7344H81.786L84.0888 34.641L86.3636 31.7344Z" fill="var(--xenon-color-text)" fill-opacity="0.88"/>
<defs>
<clipPath id="clip0_398_9433">
<rect width="56.4932" height="37.9708" fill="white" transform="translate(0 2)"/>
</clipPath>
</defs>
</svg>
