<svg
    xmlns="http://www.w3.org/2000/svg"
    width="25"
    height="22"
    viewBox="0 0 24 25"
    fill="none"
>
    <path
    d="M17.65 6.85C16.2 5.4 14.21 4.5 12 4.5C9.87827 4.5 7.84344 5.34285 6.34315 6.84315C4.84285 8.34344 4 10.3783 4 12.5C4 14.6217 4.84285 16.6566 6.34315 18.1569C7.84344 19.6571 9.87827 20.5 12 20.5C15.73 20.5 18.84 17.95 19.73 14.5H17.65C16.83 16.83 14.61 18.5 12 18.5C10.4087 18.5 8.88258 17.8679 7.75736 16.7426C6.63214 15.6174 6 14.0913 6 12.5C6 10.9087 6.63214 9.38258 7.75736 8.25736C8.88258 7.13214 10.4087 6.5 12 6.5C13.66 6.5 15.14 7.19 16.22 8.28L13 11.5H20V4.5L17.65 6.85Z"
    fill="#6F767E"
    />
</svg>