<svg width="219" height="56" viewBox="0 0 219 56" fill="none" xmlns="http://www.w3.org/2000/svg">
<path d="M23.114 0.125519C21.6097 0.435932 20.8217 0.841862 11.939 5.8085C2.91312 10.8468 2.00576 11.5154 0.764098 14.1419L0 15.7657V26.5108V37.2559L0.764098 38.8557C1.71922 40.8615 3.10415 42.2703 5.42032 43.5359C6.39932 44.085 7.28281 44.5387 7.37832 44.5387C7.44996 44.5387 7.52159 39.4049 7.52159 33.1011C7.52159 26.463 7.6171 21.1382 7.76037 20.398C8.35732 17.2222 10.5541 14.4762 13.9209 12.7093C14.876 12.2078 17.7175 10.6796 20.2247 9.2947C24.1168 7.16955 24.9287 6.81138 25.4301 6.97853C25.9077 7.14568 26.0271 7.3367 26.0271 8.00528V8.81714L19.58 12.3272C14.2313 15.2403 12.9658 16.0283 12.0345 17.0312C9.98103 19.2519 10.0527 18.7982 9.98103 33.316L9.9094 46.0908L13.6821 48.1682L17.431 50.2456L17.5504 37.6618C17.6936 23.8364 17.6698 24.0275 19.2218 21.6158C20.5829 19.4906 21.9201 18.5594 28.391 15.1926C34.9336 11.8019 35.5067 11.6348 35.841 12.9242C35.9604 13.354 35.8649 13.6644 35.5544 13.9748C35.2918 14.1897 32.4742 15.7418 29.2506 17.4132C22.7558 20.7801 21.8246 21.4964 20.7262 23.8603L20.0576 25.3169V38.5692V51.8215L21.4903 52.3946C23.1617 53.0632 26.1226 53.2065 27.6986 52.6812C28.2239 52.4901 31.5668 50.747 35.1008 48.7651C49.1888 40.9331 48.2098 41.554 49.2605 39.787C49.8335 38.808 49.9052 38.4259 49.9768 35.7277C50.0723 33.1966 50.0246 32.7668 49.7619 33.0056C48.8307 33.7697 33.3815 42.3897 32.9517 42.3897C31.925 42.3897 31.4713 41.1003 32.2593 40.4556C32.4742 40.2884 36.1514 38.1394 40.4495 35.68C50.1201 30.1641 49.6186 30.6895 49.738 25.89C49.7858 24.0752 49.7619 22.5709 49.6664 22.5709C49.5709 22.5709 49.2127 22.7619 48.8784 23.0007C47.1353 24.2185 33.3577 31.8834 32.9279 31.8834C31.925 31.8834 31.4952 30.5939 32.2593 29.9492C32.4742 29.7582 36.1514 27.6092 40.4495 25.1736C49.738 19.8488 49.5947 20.016 49.738 16.5298C49.8574 14.0464 49.5231 13.0197 48.1859 11.778C47.4218 11.0617 29.3939 0.96125 27.9851 0.459812C26.7673 0.0300064 24.3556 -0.137142 23.114 0.125519Z" fill="#0079C2"/>
<path d="M70.3975 6.68024H65.0215V3.20024H79.5175V6.68024H74.1175V20.0002H70.3975V6.68024ZM94.8419 20.0002H81.7859V3.20024H94.6259V6.68024H85.5059V9.80024H94.0259V13.1602H85.5059V16.5202H94.8419V20.0002ZM101.812 14.2642V20.0002H98.0918V3.20024H104.884C106.948 3.20024 108.596 3.63224 109.828 4.49624C111.06 5.36024 111.676 6.75224 111.676 8.67224C111.676 9.72824 111.372 10.7282 110.764 11.6722C110.156 12.6002 109.364 13.2402 108.388 13.5922L113.068 20.0002H108.58L104.476 14.2642H101.812ZM104.812 6.68024H101.812V10.7842H104.956C105.756 10.7842 106.428 10.6162 106.972 10.2802C107.532 9.94424 107.812 9.40824 107.812 8.67224C107.812 7.88824 107.532 7.36024 106.972 7.08824C106.428 6.81624 105.708 6.68024 104.812 6.68024ZM128.415 20.0002H115.359V3.20024H128.199V6.68024H119.079V9.80024H127.599V13.1602H119.079V16.5202H128.415V20.0002ZM135.385 20.0002H131.665V3.20024H135.121L140.497 11.2402L145.609 3.20024H148.969V20.0002H145.249V9.92024L140.881 16.6162H139.897L135.385 9.84824V20.0002Z" fill="#0079C2"/>
<path d="M68.9065 28.2502H65.0815V27.5002H73.5265V28.2502H69.7015V38.0002H68.9065V28.2502ZM72.8691 31.6552L72.4491 31.0702C72.7891 30.7602 73.2391 30.5052 73.7991 30.3052C74.3691 30.1052 74.8941 30.0052 75.3741 30.0052C76.4041 30.0052 77.1941 30.2702 77.7441 30.8002C78.3041 31.3302 78.5841 32.1052 78.5841 33.1252V38.0002H77.8491V36.5902C77.5191 37.0902 77.0791 37.4702 76.5291 37.7302C75.9791 37.9802 75.3841 38.1052 74.7441 38.1052C73.9841 38.1052 73.3241 37.9102 72.7641 37.5202C72.2141 37.1202 71.9391 36.5552 71.9391 35.8252C71.9391 34.2752 73.2191 33.5002 75.7791 33.5002C76.5891 33.5002 77.2791 33.5802 77.8491 33.7402C77.8491 32.7402 77.6591 31.9852 77.2791 31.4752C76.9091 30.9652 76.2441 30.7102 75.2841 30.7102C74.4541 30.7102 73.6491 31.0252 72.8691 31.6552ZM74.9691 37.4002C75.5891 37.4002 76.1641 37.2252 76.6941 36.8752C77.2341 36.5252 77.6191 36.0652 77.8491 35.4952V34.4452C77.3691 34.2852 76.7191 34.2052 75.8991 34.2052C75.6591 34.2052 75.4541 34.2102 75.2841 34.2202C75.1141 34.2302 74.8891 34.2502 74.6091 34.2802C74.3391 34.3002 74.1041 34.3452 73.9041 34.4152C73.7141 34.4852 73.5191 34.5752 73.3191 34.6852C73.1291 34.7852 72.9841 34.9302 72.8841 35.1202C72.7841 35.3002 72.7341 35.5102 72.7341 35.7502C72.7341 36.3002 72.9591 36.7152 73.4091 36.9952C73.8691 37.2652 74.3891 37.4002 74.9691 37.4002ZM81.1521 38.0002H80.4171V30.2002H81.1521V38.0002ZM80.2371 27.6202C80.2371 27.4802 80.2921 27.3602 80.4021 27.2602C80.5221 27.1502 80.6521 27.0952 80.7921 27.0952C80.9321 27.0952 81.0571 27.1502 81.1671 27.2602C81.2771 27.3702 81.3321 27.4902 81.3321 27.6202C81.3321 27.7802 81.2771 27.9152 81.1671 28.0252C81.0671 28.1452 80.9421 28.2052 80.7921 28.2052C80.6421 28.2052 80.5121 28.1452 80.4021 28.0252C80.2921 27.9152 80.2371 27.7802 80.2371 27.6202ZM83.8655 38.0002H83.1305V27.0502H83.8655V38.0002ZM85.1623 34.0852C85.1623 32.8852 85.5473 31.9052 86.3173 31.1452C87.0873 30.3852 88.0623 30.0052 89.2423 30.0052C90.4523 30.0052 91.4373 30.3902 92.1973 31.1602C92.9573 31.9202 93.3373 32.8952 93.3373 34.0852C93.3373 35.2852 92.9473 36.2652 92.1673 37.0252C91.3973 37.7752 90.4223 38.1502 89.2423 38.1502C88.0523 38.1502 87.0723 37.7702 86.3023 37.0102C85.5423 36.2402 85.1623 35.2652 85.1623 34.0852ZM85.9573 34.0852C85.9573 35.0552 86.2673 35.8602 86.8873 36.5002C87.5073 37.1302 88.2923 37.4452 89.2423 37.4452C90.2123 37.4452 91.0023 37.1302 91.6123 36.5002C92.2323 35.8702 92.5423 35.0652 92.5423 34.0852C92.5423 33.1052 92.2323 32.3002 91.6123 31.6702C91.0023 31.0302 90.2123 30.7102 89.2423 30.7102C88.2723 30.7102 87.4823 31.0352 86.8723 31.6852C86.2623 32.3252 85.9573 33.1252 85.9573 34.0852ZM95.3651 38.0002H94.6301V30.2002H95.3651V31.1302C95.5151 30.8002 95.7651 30.5352 96.1151 30.3352C96.4651 30.1252 96.8301 30.0202 97.2101 30.0202C97.9301 30.0202 98.4651 30.2602 98.8151 30.7402L98.2751 31.1902C98.0051 30.8802 97.6301 30.7252 97.1501 30.7252C96.7201 30.7252 96.3401 30.8902 96.0101 31.2202C95.6801 31.5502 95.4651 31.9402 95.3651 32.3902V38.0002ZM105.388 36.0652L105.913 36.5002C105.193 37.6002 104.168 38.1502 102.838 38.1502C101.608 38.1502 100.613 37.7752 99.8527 37.0252C99.0927 36.2752 98.7127 35.2952 98.7127 34.0852C98.7127 32.8552 99.0677 31.8702 99.7777 31.1302C100.498 30.3802 101.453 30.0052 102.643 30.0052C103.693 30.0052 104.543 30.3352 105.193 30.9952C105.853 31.6552 106.183 32.5002 106.183 33.5302C106.183 33.8202 106.168 34.0702 106.138 34.2802H99.5077C99.5077 35.2602 99.8227 36.0352 100.453 36.6052C101.083 37.1652 101.893 37.4452 102.883 37.4452C103.363 37.4452 103.833 37.3202 104.293 37.0702C104.763 36.8102 105.128 36.4752 105.388 36.0652ZM102.553 30.7102C101.683 30.7102 100.968 30.9752 100.408 31.5052C99.8577 32.0252 99.5427 32.7152 99.4627 33.5752H105.388C105.368 32.6852 105.108 31.9852 104.608 31.4752C104.118 30.9652 103.433 30.7102 102.553 30.7102ZM114.186 38.0002H113.451V36.6802C113.221 37.1102 112.841 37.4602 112.311 37.7302C111.791 38.0002 111.276 38.1352 110.766 38.1352C109.576 38.1352 108.621 37.7602 107.901 37.0102C107.181 36.2602 106.821 35.2952 106.821 34.1152C106.821 32.9452 107.206 31.9702 107.976 31.1902C108.746 30.4002 109.706 30.0052 110.856 30.0052C111.976 30.0052 112.841 30.3352 113.451 30.9952V27.0502H114.186V38.0002ZM110.781 37.4302C111.361 37.4302 111.886 37.2652 112.356 36.9352C112.826 36.5952 113.191 36.1502 113.451 35.6002V32.0902C112.861 31.1702 111.981 30.7102 110.811 30.7102C109.881 30.7102 109.116 31.0402 108.516 31.7002C107.916 32.3602 107.616 33.1552 107.616 34.0852C107.616 35.0552 107.906 35.8552 108.486 36.4852C109.066 37.1152 109.831 37.4302 110.781 37.4302ZM127.843 38.0002H120.328V27.5002H127.693V28.2502H121.123V32.2852H127.258V33.0352H121.123V37.2502H127.843V38.0002ZM134.814 30.2002H135.699L132.729 33.9502L135.879 38.0002H134.949L132.174 34.4302L129.369 38.0002H128.514L131.649 33.9802L128.694 30.2002H129.609L132.219 33.5152L134.814 30.2002ZM137.51 41.0002H136.775V30.2002H137.51V31.5052C137.8 31.0152 138.215 30.6452 138.755 30.3952C139.305 30.1352 139.885 30.0052 140.495 30.0052C141.635 30.0052 142.53 30.3802 143.18 31.1302C143.84 31.8702 144.17 32.8102 144.17 33.9502C144.17 35.1302 143.81 36.1252 143.09 36.9352C142.37 37.7452 141.435 38.1502 140.285 38.1502C139.765 38.1502 139.24 38.0502 138.71 37.8502C138.18 37.6502 137.78 37.3652 137.51 36.9952V41.0002ZM140.435 30.7102C139.805 30.7102 139.21 30.9052 138.65 31.2952C138.1 31.6752 137.72 32.1652 137.51 32.7652V35.9002C137.78 36.4102 138.16 36.7952 138.65 37.0552C139.15 37.3152 139.7 37.4452 140.3 37.4452C141.23 37.4452 141.975 37.1052 142.535 36.4252C143.095 35.7452 143.375 34.9352 143.375 33.9952C143.375 33.0552 143.115 32.2752 142.595 31.6552C142.075 31.0252 141.355 30.7102 140.435 30.7102ZM151.62 36.0652L152.145 36.5002C151.425 37.6002 150.4 38.1502 149.07 38.1502C147.84 38.1502 146.845 37.7752 146.085 37.0252C145.325 36.2752 144.945 35.2952 144.945 34.0852C144.945 32.8552 145.3 31.8702 146.01 31.1302C146.73 30.3802 147.685 30.0052 148.875 30.0052C149.925 30.0052 150.775 30.3352 151.425 30.9952C152.085 31.6552 152.415 32.5002 152.415 33.5302C152.415 33.8202 152.4 34.0702 152.37 34.2802H145.74C145.74 35.2602 146.055 36.0352 146.685 36.6052C147.315 37.1652 148.125 37.4452 149.115 37.4452C149.595 37.4452 150.065 37.3202 150.525 37.0702C150.995 36.8102 151.36 36.4752 151.62 36.0652ZM148.785 30.7102C147.915 30.7102 147.2 30.9752 146.64 31.5052C146.09 32.0252 145.775 32.7152 145.695 33.5752H151.62C151.6 32.6852 151.34 31.9852 150.84 31.4752C150.35 30.9652 149.665 30.7102 148.785 30.7102ZM154.445 38.0002H153.71V30.2002H154.445V31.1302C154.595 30.8002 154.845 30.5352 155.195 30.3352C155.545 30.1252 155.91 30.0202 156.29 30.0202C157.01 30.0202 157.545 30.2602 157.895 30.7402L157.355 31.1902C157.085 30.8802 156.71 30.7252 156.23 30.7252C155.8 30.7252 155.42 30.8902 155.09 31.2202C154.76 31.5502 154.545 31.9402 154.445 32.3902V38.0002ZM159.151 30.9052H157.516V30.2002H159.151V28.4002H159.886V30.2002H162.751V30.9052H159.886V34.8802C159.886 35.2502 159.906 35.5652 159.946 35.8252C159.986 36.0852 160.061 36.3452 160.171 36.6052C160.281 36.8652 160.456 37.0652 160.696 37.2052C160.936 37.3352 161.241 37.4002 161.611 37.4002C162.151 37.4002 162.601 37.1802 162.961 36.7402L163.411 37.2052C163.201 37.4752 162.911 37.6952 162.541 37.8652C162.171 38.0252 161.806 38.1052 161.446 38.1052C159.916 38.1052 159.151 37.0802 159.151 35.0302V30.9052ZM67.0165 48.5752V53.0002H66.2215V42.5002H70.1065C72.7365 42.5002 74.0515 43.4952 74.0515 45.4852C74.0515 46.2852 73.7765 46.9502 73.2265 47.4802C72.6865 48.0002 72.0065 48.3102 71.1865 48.4102L74.8015 53.0002H73.8115L70.3615 48.5752H67.0165ZM70.0615 43.2502H67.0165V47.8252H70.1515C70.6715 47.8252 71.1515 47.7502 71.5915 47.6002C72.0415 47.4502 72.4265 47.1952 72.7465 46.8352C73.0665 46.4652 73.2265 46.0152 73.2265 45.4852C73.2265 43.9952 72.1715 43.2502 70.0615 43.2502ZM81.3554 51.0652L81.8804 51.5002C81.1604 52.6002 80.1354 53.1502 78.8054 53.1502C77.5754 53.1502 76.5804 52.7752 75.8204 52.0252C75.0604 51.2752 74.6804 50.2952 74.6804 49.0852C74.6804 47.8552 75.0354 46.8702 75.7454 46.1302C76.4654 45.3802 77.4204 45.0052 78.6104 45.0052C79.6604 45.0052 80.5104 45.3352 81.1604 45.9952C81.8204 46.6552 82.1504 47.5002 82.1504 48.5302C82.1504 48.8202 82.1354 49.0702 82.1054 49.2802H75.4754C75.4754 50.2602 75.7904 51.0352 76.4204 51.6052C77.0504 52.1652 77.8604 52.4452 78.8504 52.4452C79.3304 52.4452 79.8004 52.3202 80.2604 52.0702C80.7304 51.8102 81.0954 51.4752 81.3554 51.0652ZM78.5204 45.7102C77.6504 45.7102 76.9354 45.9752 76.3754 46.5052C75.8254 47.0252 75.5104 47.7152 75.4304 48.5752H81.3554C81.3354 47.6852 81.0754 46.9852 80.5754 46.4752C80.0854 45.9652 79.4004 45.7102 78.5204 45.7102ZM88.5151 50.9752C88.5151 50.6852 88.3851 50.4252 88.1251 50.1952C87.8851 49.9852 87.2901 49.7502 86.3401 49.4902C85.3801 49.2402 84.7251 49.0252 84.3751 48.8452C83.9751 48.6652 83.6751 48.4352 83.4751 48.1552C83.2551 47.8952 83.1451 47.5552 83.1451 47.1352C83.1451 46.6352 83.3001 46.2202 83.6101 45.8902C83.9201 45.5502 84.2851 45.3202 84.7051 45.2002C85.1251 45.0702 85.5801 45.0052 86.0701 45.0052C86.6301 45.0052 87.1901 45.1202 87.7501 45.3502C88.3201 45.5802 88.7501 45.9052 89.0401 46.3252L88.5001 46.7902C88.2701 46.4602 87.9201 46.2002 87.4501 46.0102C86.9901 45.8102 86.5351 45.7102 86.0851 45.7102C84.6551 45.7102 83.9401 46.1802 83.9401 47.1202C83.9401 47.4202 84.0701 47.6902 84.3301 47.9302C84.5801 48.1602 85.1801 48.4052 86.1301 48.6652C87.1001 48.9252 87.7401 49.1302 88.0501 49.2802C88.6301 49.5602 89.0101 49.9002 89.1901 50.3002C89.2701 50.5102 89.3101 50.7302 89.3101 50.9602C89.3101 51.7102 89.0051 52.2652 88.3951 52.6252C87.7951 52.9752 87.0901 53.1502 86.2801 53.1502C85.5801 53.1502 84.9051 52.9952 84.2551 52.6852C83.6151 52.3652 83.1551 51.9152 82.8751 51.3352L83.4751 50.9002C83.6851 51.3602 84.0701 51.7352 84.6301 52.0252C85.1901 52.3052 85.7451 52.4452 86.2951 52.4452C86.8551 52.4452 87.3651 52.3252 87.8251 52.0852C88.2851 51.8452 88.5151 51.4752 88.5151 50.9752ZM90.0912 49.0852C90.0912 47.8852 90.4762 46.9052 91.2462 46.1452C92.0162 45.3852 92.9912 45.0052 94.1712 45.0052C95.3812 45.0052 96.3662 45.3902 97.1262 46.1602C97.8862 46.9202 98.2662 47.8952 98.2662 49.0852C98.2662 50.2852 97.8762 51.2652 97.0962 52.0252C96.3262 52.7752 95.3512 53.1502 94.1712 53.1502C92.9812 53.1502 92.0012 52.7702 91.2312 52.0102C90.4712 51.2402 90.0912 50.2652 90.0912 49.0852ZM90.8862 49.0852C90.8862 50.0552 91.1962 50.8602 91.8162 51.5002C92.4362 52.1302 93.2212 52.4452 94.1712 52.4452C95.1412 52.4452 95.9312 52.1302 96.5412 51.5002C97.1612 50.8702 97.4712 50.0652 97.4712 49.0852C97.4712 48.1052 97.1612 47.3002 96.5412 46.6702C95.9312 46.0302 95.1412 45.7102 94.1712 45.7102C93.2012 45.7102 92.4112 46.0352 91.8012 46.6852C91.1912 47.3252 90.8862 48.1252 90.8862 49.0852ZM105.499 45.1552H106.234V53.0002H105.499V51.5302C104.809 52.6102 103.834 53.1502 102.574 53.1502C100.464 53.1502 99.409 52.0052 99.409 49.7152V45.1552H100.144V49.5202C100.144 51.4702 100.969 52.4452 102.619 52.4452C103.269 52.4452 103.849 52.2502 104.359 51.8602C104.869 51.4602 105.249 50.9452 105.499 50.3152V45.1552ZM108.768 53.0002H108.033V45.2002H108.768V46.1302C108.918 45.8002 109.168 45.5352 109.518 45.3352C109.868 45.1252 110.233 45.0202 110.613 45.0202C111.333 45.0202 111.868 45.2602 112.218 45.7402L111.678 46.1902C111.408 45.8802 111.033 45.7252 110.553 45.7252C110.123 45.7252 109.743 45.8902 109.413 46.2202C109.083 46.5502 108.868 46.9402 108.768 47.3902V53.0002ZM118.776 51.1552L119.271 51.6202C119.031 52.0802 118.611 52.4502 118.011 52.7302C117.411 53.0102 116.826 53.1502 116.256 53.1502C115.016 53.1502 114.016 52.7752 113.256 52.0252C112.496 51.2752 112.116 50.2952 112.116 49.0852C112.116 47.8952 112.501 46.9202 113.271 46.1602C114.041 45.3902 115.016 45.0052 116.196 45.0052C116.756 45.0052 117.311 45.1252 117.861 45.3652C118.411 45.6052 118.831 45.9452 119.121 46.3852L118.536 46.8202C117.976 46.0802 117.186 45.7102 116.166 45.7102C115.226 45.7102 114.446 46.0402 113.826 46.7002C113.216 47.3502 112.911 48.1452 112.911 49.0852C112.911 50.1052 113.221 50.9202 113.841 51.5302C114.461 52.1402 115.281 52.4452 116.301 52.4452C116.781 52.4452 117.246 52.3302 117.696 52.1002C118.146 51.8602 118.506 51.5452 118.776 51.1552ZM125.947 51.0652L126.472 51.5002C125.752 52.6002 124.727 53.1502 123.397 53.1502C122.167 53.1502 121.172 52.7752 120.412 52.0252C119.652 51.2752 119.272 50.2952 119.272 49.0852C119.272 47.8552 119.627 46.8702 120.337 46.1302C121.057 45.3802 122.012 45.0052 123.202 45.0052C124.252 45.0052 125.102 45.3352 125.752 45.9952C126.412 46.6552 126.742 47.5002 126.742 48.5302C126.742 48.8202 126.727 49.0702 126.697 49.2802H120.067C120.067 50.2602 120.382 51.0352 121.012 51.6052C121.642 52.1652 122.452 52.4452 123.442 52.4452C123.922 52.4452 124.392 52.3202 124.852 52.0702C125.322 51.8102 125.687 51.4752 125.947 51.0652ZM123.112 45.7102C122.242 45.7102 121.527 45.9752 120.967 46.5052C120.417 47.0252 120.102 47.7152 120.022 48.5752H125.947C125.927 47.6852 125.667 46.9852 125.167 46.4752C124.677 45.9652 123.992 45.7102 123.112 45.7102ZM133.107 50.9752C133.107 50.6852 132.977 50.4252 132.717 50.1952C132.477 49.9852 131.882 49.7502 130.932 49.4902C129.972 49.2402 129.317 49.0252 128.967 48.8452C128.567 48.6652 128.267 48.4352 128.067 48.1552C127.847 47.8952 127.737 47.5552 127.737 47.1352C127.737 46.6352 127.892 46.2202 128.202 45.8902C128.512 45.5502 128.877 45.3202 129.297 45.2002C129.717 45.0702 130.172 45.0052 130.662 45.0052C131.222 45.0052 131.782 45.1202 132.342 45.3502C132.912 45.5802 133.342 45.9052 133.632 46.3252L133.092 46.7902C132.862 46.4602 132.512 46.2002 132.042 46.0102C131.582 45.8102 131.127 45.7102 130.677 45.7102C129.247 45.7102 128.532 46.1802 128.532 47.1202C128.532 47.4202 128.662 47.6902 128.922 47.9302C129.172 48.1602 129.772 48.4052 130.722 48.6652C131.692 48.9252 132.332 49.1302 132.642 49.2802C133.222 49.5602 133.602 49.9002 133.782 50.3002C133.862 50.5102 133.902 50.7302 133.902 50.9602C133.902 51.7102 133.597 52.2652 132.987 52.6252C132.387 52.9752 131.682 53.1502 130.872 53.1502C130.172 53.1502 129.497 52.9952 128.847 52.6852C128.207 52.3652 127.747 51.9152 127.467 51.3352L128.067 50.9002C128.277 51.3602 128.662 51.7352 129.222 52.0252C129.782 52.3052 130.337 52.4452 130.887 52.4452C131.447 52.4452 131.957 52.3252 132.417 52.0852C132.877 51.8452 133.107 51.4752 133.107 50.9752ZM139.99 45.9052H138.34V45.2002H139.99V44.7202C139.99 43.8902 140.2 43.2202 140.62 42.7102C141.05 42.1902 141.665 41.9302 142.465 41.9302C142.825 41.9302 143.17 42.0152 143.5 42.1852C143.84 42.3452 144.1 42.5652 144.28 42.8452L143.785 43.2652C143.475 42.8452 143.04 42.6352 142.48 42.6352C141.31 42.6352 140.725 43.3852 140.725 44.8852V45.2002H143.41V45.9052H140.725V53.0002H139.99V45.9052ZM143.355 49.0852C143.355 47.8852 143.74 46.9052 144.51 46.1452C145.28 45.3852 146.255 45.0052 147.435 45.0052C148.645 45.0052 149.63 45.3902 150.39 46.1602C151.15 46.9202 151.53 47.8952 151.53 49.0852C151.53 50.2852 151.14 51.2652 150.36 52.0252C149.59 52.7752 148.615 53.1502 147.435 53.1502C146.245 53.1502 145.265 52.7702 144.495 52.0102C143.735 51.2402 143.355 50.2652 143.355 49.0852ZM144.15 49.0852C144.15 50.0552 144.46 50.8602 145.08 51.5002C145.7 52.1302 146.485 52.4452 147.435 52.4452C148.405 52.4452 149.195 52.1302 149.805 51.5002C150.425 50.8702 150.735 50.0652 150.735 49.0852C150.735 48.1052 150.425 47.3002 149.805 46.6702C149.195 46.0302 148.405 45.7102 147.435 45.7102C146.465 45.7102 145.675 46.0352 145.065 46.6852C144.455 47.3252 144.15 48.1252 144.15 49.0852ZM153.558 53.0002H152.823V45.2002H153.558V46.1302C153.708 45.8002 153.958 45.5352 154.308 45.3352C154.658 45.1252 155.023 45.0202 155.403 45.0202C156.123 45.0202 156.658 45.2602 157.008 45.7402L156.468 46.1902C156.198 45.8802 155.823 45.7252 155.343 45.7252C154.913 45.7252 154.533 45.8902 154.203 46.2202C153.873 46.5502 153.658 46.9402 153.558 47.3902V53.0002ZM162.821 53.0002H162.026V42.5002H162.836L167.141 48.2752L171.281 42.5002H172.061V53.0002H171.266V43.7602L167.171 49.4302H167.006L162.821 43.8052V53.0002ZM173.503 49.0852C173.503 47.8852 173.888 46.9052 174.658 46.1452C175.428 45.3852 176.403 45.0052 177.583 45.0052C178.793 45.0052 179.778 45.3902 180.538 46.1602C181.298 46.9202 181.678 47.8952 181.678 49.0852C181.678 50.2852 181.288 51.2652 180.508 52.0252C179.738 52.7752 178.763 53.1502 177.583 53.1502C176.393 53.1502 175.413 52.7702 174.643 52.0102C173.883 51.2402 173.503 50.2652 173.503 49.0852ZM174.298 49.0852C174.298 50.0552 174.608 50.8602 175.228 51.5002C175.848 52.1302 176.633 52.4452 177.583 52.4452C178.553 52.4452 179.343 52.1302 179.953 51.5002C180.573 50.8702 180.883 50.0652 180.883 49.0852C180.883 48.1052 180.573 47.3002 179.953 46.6702C179.343 46.0302 178.553 45.7102 177.583 45.7102C176.613 45.7102 175.823 46.0352 175.213 46.6852C174.603 47.3252 174.298 48.1252 174.298 49.0852ZM189.826 53.0002H189.091V51.6802C188.861 52.1102 188.481 52.4602 187.951 52.7302C187.431 53.0002 186.916 53.1352 186.406 53.1352C185.216 53.1352 184.261 52.7602 183.541 52.0102C182.821 51.2602 182.461 50.2952 182.461 49.1152C182.461 47.9452 182.846 46.9702 183.616 46.1902C184.386 45.4002 185.346 45.0052 186.496 45.0052C187.616 45.0052 188.481 45.3352 189.091 45.9952V42.0502H189.826V53.0002ZM186.421 52.4302C187.001 52.4302 187.526 52.2652 187.996 51.9352C188.466 51.5952 188.831 51.1502 189.091 50.6002V47.0902C188.501 46.1702 187.621 45.7102 186.451 45.7102C185.521 45.7102 184.756 46.0402 184.156 46.7002C183.556 47.3602 183.256 48.1552 183.256 49.0852C183.256 50.0552 183.546 50.8552 184.126 51.4852C184.706 52.1152 185.471 52.4302 186.421 52.4302ZM197.561 45.1552H198.296V53.0002H197.561V51.5302C196.871 52.6102 195.896 53.1502 194.636 53.1502C192.526 53.1502 191.471 52.0052 191.471 49.7152V45.1552H192.206V49.5202C192.206 51.4702 193.031 52.4452 194.681 52.4452C195.331 52.4452 195.911 52.2502 196.421 51.8602C196.931 51.4602 197.311 50.9452 197.561 50.3152V45.1552ZM200.83 53.0002H200.095V42.0502H200.83V53.0002ZM208.802 51.0652L209.327 51.5002C208.607 52.6002 207.582 53.1502 206.252 53.1502C205.022 53.1502 204.027 52.7752 203.267 52.0252C202.507 51.2752 202.127 50.2952 202.127 49.0852C202.127 47.8552 202.482 46.8702 203.192 46.1302C203.912 45.3802 204.867 45.0052 206.057 45.0052C207.107 45.0052 207.957 45.3352 208.607 45.9952C209.267 46.6552 209.597 47.5002 209.597 48.5302C209.597 48.8202 209.582 49.0702 209.552 49.2802H202.922C202.922 50.2602 203.237 51.0352 203.867 51.6052C204.497 52.1652 205.307 52.4452 206.297 52.4452C206.777 52.4452 207.247 52.3202 207.707 52.0702C208.177 51.8102 208.542 51.4752 208.802 51.0652ZM205.967 45.7102C205.097 45.7102 204.382 45.9752 203.822 46.5052C203.272 47.0252 202.957 47.7152 202.877 48.5752H208.802C208.782 47.6852 208.522 46.9852 208.022 46.4752C207.532 45.9652 206.847 45.7102 205.967 45.7102ZM215.962 50.9752C215.962 50.6852 215.832 50.4252 215.572 50.1952C215.332 49.9852 214.737 49.7502 213.787 49.4902C212.827 49.2402 212.172 49.0252 211.822 48.8452C211.422 48.6652 211.122 48.4352 210.922 48.1552C210.702 47.8952 210.592 47.5552 210.592 47.1352C210.592 46.6352 210.747 46.2202 211.057 45.8902C211.367 45.5502 211.732 45.3202 212.152 45.2002C212.572 45.0702 213.027 45.0052 213.517 45.0052C214.077 45.0052 214.637 45.1202 215.197 45.3502C215.767 45.5802 216.197 45.9052 216.487 46.3252L215.947 46.7902C215.717 46.4602 215.367 46.2002 214.897 46.0102C214.437 45.8102 213.982 45.7102 213.532 45.7102C212.102 45.7102 211.387 46.1802 211.387 47.1202C211.387 47.4202 211.517 47.6902 211.777 47.9302C212.027 48.1602 212.627 48.4052 213.577 48.6652C214.547 48.9252 215.187 49.1302 215.497 49.2802C216.077 49.5602 216.457 49.9002 216.637 50.3002C216.717 50.5102 216.757 50.7302 216.757 50.9602C216.757 51.7102 216.452 52.2652 215.842 52.6252C215.242 52.9752 214.537 53.1502 213.727 53.1502C213.027 53.1502 212.352 52.9952 211.702 52.6852C211.062 52.3652 210.602 51.9152 210.322 51.3352L210.922 50.9002C211.132 51.3602 211.517 51.7352 212.077 52.0252C212.637 52.3052 213.192 52.4452 213.742 52.4452C214.302 52.4452 214.812 52.3252 215.272 52.0852C215.732 51.8452 215.962 51.4752 215.962 50.9752Z" fill="#0079C2"/>
</svg>
