<svg width="124" height="61" viewBox="0 0 124 61" fill="none" xmlns="http://www.w3.org/2000/svg">
<path d="M33.8066 11.0166C32.5103 5.35342 29.261 0.747218 28.8126 -0.00518799C28.1063 1.05225 25.5141 5.11783 24.1964 9.63128C22.7579 14.6601 22.5471 19.1234 23.0432 23.5193C23.5363 27.9157 25.3978 32.4257 25.3978 32.4257C26.387 34.7945 27.8697 37.3295 28.8355 38.5759C30.2486 36.7432 33.4999 31.276 34.5129 24.1299C35.0771 20.159 35.1019 16.6812 33.8066 11.0166ZM28.8126 37.1668C28.1769 35.9685 27.1877 33.6919 27.0928 30.1705C27.0689 26.7635 28.4358 23.8482 28.8355 23.2386C29.1904 23.8482 30.3669 26.3871 30.5071 29.8649C30.603 33.2689 29.4722 35.9452 28.8126 37.1668ZM33.4298 20.6297C33.3816 22.7897 33.1226 25.0698 32.7931 26.4332C32.9114 24.0837 32.6291 20.7696 32.0868 18.184C31.5445 15.5985 30.0135 11.275 28.7893 9.27764C27.6589 11.1807 26.2682 14.9185 25.539 18.1602C24.8068 21.4054 24.7844 25.3282 24.7844 26.5056C24.5921 25.5127 24.1044 21.9768 24.2431 18.4191C24.3565 15.4859 25.0439 12.4733 25.4212 11.087C26.8567 6.45698 28.4836 3.49745 28.7893 3.02676C29.0949 3.49745 31.1438 7.13995 32.2056 10.9704C33.2633 14.8004 33.4756 18.4672 33.4298 20.6297Z" fill="#fff"/>
<path d="M31.0132 39.8956H21.156V46.4967C21.1644 46.4877 21.1719 46.4778 21.1803 46.4694C23.5031 44.1526 27.2693 44.1526 29.5926 46.4694C31.9144 48.7871 31.9144 52.5457 29.5926 54.8624C29.5827 54.8723 29.5717 54.8808 29.5623 54.8902C29.5623 54.8902 29.5623 54.8917 29.5613 54.8922C29.5499 54.9041 29.5374 54.9125 29.5265 54.9234C27.2112 57.2188 24.1831 58.367 21.156 58.367C18.1159 58.367 15.0749 57.2104 12.7551 54.8951C8.66728 50.8167 8.18314 44.5053 11.2987 39.8956C11.7192 39.2732 12.2039 38.6814 12.7551 38.1304C15.0749 35.8166 18.1159 34.661 21.156 34.661V18.795C9.47152 18.795 0 28.2464 0 39.8956C0 51.5542 9.47152 61.0052 21.156 61.0052C27.248 61.0052 32.7355 58.434 36.5962 54.3248V39.8956H31.0132Z" fill="#fff"/>
<path d="M39.1012 18.795H47.166V21.4113H43.3297V39.8907H39.1012V18.795Z" fill="#fff"/>
<path d="M51.7311 31.9649L52.4563 21.4099H52.6989L53.4226 31.9649H51.7311ZM47.0503 39.8907H51.1873L51.58 34.2841H53.5747L53.9669 39.8907H58.1055L55.8995 18.795H49.2553L47.0503 39.8907Z" fill="#fff"/>
<path d="M63.6633 32.506V36.4788C63.6633 37.0214 64.0853 37.1727 64.3268 37.1727C64.721 37.1727 64.9919 36.8413 64.9919 36.4788V31.5725C64.9919 30.9094 64.8706 30.1872 63.3004 30.1872H61.5791V27.8665H63.3605C64.5684 27.8665 64.9919 27.5947 64.9919 26.2987V22.1037C64.9919 21.7426 64.721 21.4113 64.3268 21.4113C64.0853 21.4113 63.6633 21.5621 63.6633 22.1037V25.5448H59.4352V22.562C59.4352 21.0844 59.6157 18.795 62.5752 18.795H66.081C69.0425 18.795 69.2224 21.0844 69.2224 22.562V25.9371C69.2224 28.2276 67.6219 28.861 66.3539 28.8V29.0117C69.1926 28.9512 69.2224 31.1207 69.2224 31.8741V36.1237C69.2224 37.5997 69.0425 39.8907 66.081 39.8907H62.5752C59.6157 39.8907 59.4352 37.5997 59.4352 36.1237V32.506H63.6633Z" fill="#fff"/>
<path d="M71.4449 18.795H81.2325V39.8907H77.006V21.4113H75.6749V39.8907H71.4449V18.795Z" fill="#fff"/>
<path d="M87.9322 30.3986V21.4114H88.477C88.9298 21.4114 89.2619 21.8027 89.2619 22.4643V29.3431C89.2619 30.0063 88.9298 30.3986 88.477 30.3986H87.9322ZM83.7037 39.8907H87.9322V32.7178H90.348C93.309 32.7178 93.4899 30.4269 93.4899 28.9508V22.5615C93.4899 21.0845 93.309 18.795 90.348 18.795H83.7037V39.8907Z" fill="#fff"/>
<path d="M101.103 36.479C101.103 36.8411 100.831 37.1724 100.439 37.1724C100.196 37.1724 99.7734 37.0216 99.7734 36.479V22.1039C99.7734 21.5618 100.196 21.4115 100.439 21.4115C100.831 21.4115 101.103 21.7429 101.103 22.1039V36.479ZM95.5444 36.1239C95.5444 37.6 95.7264 39.8909 98.6859 39.8909H102.19C105.149 39.8909 105.331 37.6 105.331 36.1239V22.5617C105.331 21.0847 105.149 18.7952 102.19 18.7952H98.6859C95.7264 18.7952 95.5444 21.0847 95.5444 22.5617V36.1239Z" fill="#fff"/>
<path d="M118.503 18.795H124V39.8907H119.771V26.6613H119.621L117.446 39.8907H114.063L111.889 26.6613H111.737V39.8907H107.509V18.795H113.005L115.754 33.6224L118.503 18.795Z" fill="#fff"/>
<path d="M102.007 50.9196H101.666V53.1089H102.044C102.567 53.1089 103.067 52.853 103.067 51.99C103.067 51.1269 102.616 50.9196 102.007 50.9196Z" fill="#fff"/>
<path d="M71.1039 53.6682C71.1039 54.9329 71.4087 55.5772 72.1518 55.5772H72.5663V51.7592H72.1274C71.3838 51.7592 71.1039 52.4277 71.1039 53.6682Z" fill="#fff"/>
<path d="M88.7124 50.7623C88.3466 50.7623 87.9812 50.9806 87.9812 51.4795V55.9052C87.9812 56.4285 88.3466 56.6834 88.7124 56.6834C89.0658 56.6834 89.4431 56.4285 89.4431 55.9052V51.4795C89.4431 50.9806 89.0658 50.7623 88.7124 50.7623Z" fill="#fff"/>
<path d="M75.0526 51.7592H74.6013V55.5772H75.0278C75.7714 55.5772 76.0637 54.9329 76.0637 53.6682C76.0637 52.4277 75.7957 51.7592 75.0526 51.7592Z" fill="#fff"/>
<path d="M39.1011 46.4409V60.9856H123.996V46.4409H39.1011ZM47.512 58.0825H45.5014V56.0515C45.5014 55.1146 45.7937 53.6926 45.8911 52.7681H45.8792L44.0634 58.0825H42.016V49.3512H44.0266V51.5157C44.0266 52.4764 43.7587 53.8751 43.71 54.8353H43.7219L45.5014 49.3512H47.512V58.0825ZM61.197 58.082H59.0885V54.3731H57.7116V58.082H55.6031V49.3512H57.7116V52.72H59.0885V49.3512H61.197V58.082ZM75.2226 57.1455H74.6013V58.0824H72.5663V57.1455H71.945C70.3484 57.1455 69.1664 56.161 69.1664 53.6682C69.1664 51.2116 70.3484 50.1903 71.945 50.1903H72.5663V49.3511H74.6013V50.1903H75.2226C76.8311 50.1903 78.0012 51.2116 78.0012 53.6682C78.0012 56.161 76.8311 57.1455 75.2226 57.1455ZM91.5521 55.5406C91.5521 57.2795 90.6862 58.2889 88.7124 58.2889C86.7624 58.2889 85.8727 57.2795 85.8727 55.5406V51.6129C85.8727 50.239 86.7381 49.1568 88.7243 49.1568C90.7111 49.1568 91.5521 50.2634 91.5521 51.6253V55.5406ZM102.616 54.6777H101.666V58.0821H99.5574V49.3513H102.616C103.835 49.3513 105.176 49.7888 105.176 52.0138C105.176 54.1668 103.859 54.6777 102.616 54.6777ZM121.081 58.0825H119.071V55.0183C119.071 54.1786 119.132 51.9418 119.18 51.2117H119.168L117.864 58.0825H116.401L115.098 51.2117H115.085C115.122 51.8198 115.196 53.8265 115.196 55.0054V58.0825H113.184V49.3512H116.122L116.804 52.8896C116.95 53.6073 117.023 54.8229 117.121 55.6502H117.145C117.243 54.8601 117.34 53.51 117.462 52.8896L118.144 49.3512H121.081V58.0825Z" fill="#fff"/>
</svg>
