<svg width="113" height="139" viewBox="0 0 113 139" fill="none" xmlns="http://www.w3.org/2000/svg" className='lahta-svg'>
      <g clipPath="url(#clip0_989_104662)">
        <path d="M74.7511 119.781L84.425 117.466C84.8563 117.364 85.3026 117.561 85.5157 117.946L87.7156 121.941C87.7939 122.085 87.8355 122.245 87.8355 122.409V122.827C87.8355 123.086 87.9388 123.334 88.1236 123.517L88.8763 124.265C89.0595 124.447 89.3093 124.551 89.5708 124.551H90.3668C90.7149 124.551 91.0379 124.735 91.2144 125.034L93.7774 129.386C93.8656 129.535 93.9123 129.705 93.9123 129.879C93.9123 130.481 93.371 130.939 92.7732 130.84C88.9163 130.207 76.4847 128.313 74.543 129.835" fill="var(--lahta-border-color, #7F8F9B)" />
        <path d="M92.9305 131.016C92.8689 131.016 92.8056 131.011 92.7424 131.001C84.977 129.728 76.1442 128.785 74.642 129.962L74.4355 129.703C76.379 128.179 87.9229 129.875 92.7973 130.675C93.0338 130.713 93.2736 130.647 93.4551 130.495C93.6383 130.341 93.7432 130.116 93.7432 129.878C93.7432 129.734 93.7049 129.594 93.6316 129.47L91.0687 125.117C90.9238 124.871 90.6541 124.717 90.366 124.717H89.5699C89.2635 124.717 88.9754 124.598 88.7589 124.383L88.0062 123.635C87.7897 123.42 87.6698 123.134 87.6698 122.83V122.411C87.6698 122.276 87.6348 122.142 87.5699 122.023L85.37 118.028C85.1935 117.709 84.8205 117.543 84.4641 117.629L74.7903 119.943L74.712 119.621L84.3858 117.307C84.8887 117.187 85.4133 117.417 85.6614 117.867L87.8613 121.862C87.9529 122.029 88.0029 122.219 88.0029 122.41V122.828C88.0029 123.045 88.0878 123.248 88.241 123.4L88.9937 124.148C89.1469 124.3 89.3518 124.385 89.5699 124.385H90.366C90.7723 124.385 91.152 124.601 91.3568 124.949L93.9197 129.301C94.023 129.476 94.0763 129.675 94.0763 129.876C94.0763 130.212 93.9281 130.53 93.6716 130.747C93.4634 130.922 93.2003 131.016 92.9305 131.016Z" fill="#7F8F9B" />
        <path
          d="M51.1337 96.5984C74.7486 96.5984 93.8923 77.583 93.8923 54.1264C93.8923 30.6697 74.7486 11.6543 51.1337 11.6543C27.5187 11.6543 8.375 30.6697 8.375 54.1264C8.375 77.583 27.5187 96.5984 51.1337 96.5984Z"
          fill="var(--lahta-circle-color)"
        />
        <path d="M51.1342 96.7669C39.6685 96.7669 28.8889 92.3321 20.7821 84.278C12.6737 76.2256 8.20898 65.5182 8.20898 54.1294C8.20898 42.7405 12.6737 32.0332 20.7821 23.9791C28.8889 15.925 39.6685 11.4902 51.1342 11.4902C62.5999 11.4902 73.3795 15.925 81.4879 23.9791C89.5946 32.0315 94.061 42.7405 94.061 54.1294C94.061 65.5182 89.5963 76.2256 81.4879 84.278C73.3811 92.3321 62.5999 96.7669 51.1342 96.7669ZM51.1342 11.8227C27.6482 11.8227 8.54205 30.8008 8.54205 54.1294C8.54205 77.4579 27.6482 96.436 51.1342 96.436C74.6201 96.436 93.7263 77.4579 93.7263 54.1294C93.7263 30.8008 74.6201 11.8227 51.1342 11.8227Z" fill="#7F8F9B" />
        <path d="M4.07931 133.086L1.56635 121.243C1.36485 120.295 2.31574 119.509 3.21668 119.878L28.716 130.304C29.9167 130.795 29.6103 132.562 28.3147 132.625C21.1605 132.972 9.08192 133.599 5.4149 134.034C4.78874 134.109 4.20921 133.699 4.07931 133.085V133.086Z" fill="#B6CADA" />
        <path d="M110.293 133.086L112.806 121.243C113.008 120.295 112.057 119.509 111.156 119.878L85.6564 130.304C84.4557 130.795 84.7621 132.562 86.0578 132.625C93.212 132.972 105.29 133.599 108.958 134.034C109.584 134.109 110.163 133.699 110.293 133.085V133.086Z" fill="#B6CADA" />
        <path d="M109.107 134.209C109.05 134.209 108.994 134.206 108.937 134.199C105.257 133.763 93.0182 133.129 86.0488 132.79C85.2861 132.754 84.8498 132.193 84.7565 131.654C84.6633 131.114 84.8847 130.441 85.5925 130.152L111.092 119.725C111.575 119.529 112.101 119.608 112.501 119.939C112.902 120.27 113.077 120.769 112.969 121.277L110.456 133.121C110.319 133.766 109.755 134.209 109.107 134.209ZM111.623 119.95C111.488 119.95 111.352 119.977 111.218 120.032L85.7191 130.458C85.1445 130.693 85.018 131.219 85.0846 131.597C85.1495 131.976 85.446 132.429 86.0655 132.459C93.0381 132.798 105.287 133.432 108.977 133.87C109.521 133.935 110.018 133.582 110.129 133.051L112.642 121.208C112.724 120.824 112.591 120.443 112.288 120.192C112.093 120.032 111.86 119.949 111.621 119.949L111.623 119.95Z" fill="#7F8F9B" />
        <path d="M5.26816 134.21C4.62036 134.21 4.05581 133.765 3.91926 133.122L1.4063 121.278C1.29805 120.772 1.47457 120.272 1.87425 119.942C2.27559 119.611 2.80183 119.53 3.28311 119.728L28.7824 130.154C29.4902 130.444 29.7117 131.117 29.6184 131.656C29.5252 132.196 29.0888 132.756 28.3261 132.793C21.3584 133.132 9.11837 133.765 5.43803 134.202C5.3814 134.209 5.32478 134.212 5.26816 134.212V134.21ZM4.24566 133.052C4.3589 133.583 4.85683 133.936 5.39806 133.871C9.0884 133.433 21.3368 132.799 28.3095 132.46C28.929 132.43 29.2254 131.977 29.2903 131.598C29.357 131.22 29.2304 130.692 28.6559 130.459L3.15654 120.033C2.79184 119.884 2.3905 119.943 2.08741 120.195C1.78432 120.446 1.6511 120.825 1.7327 121.21L4.24566 133.054V133.052Z" fill="#7F8F9B" />
        <path d="M32.5124 132.137L30.6173 131.047C30.1477 130.778 29.8513 130.286 29.8346 129.747L29.4266 116.97C29.3916 115.882 30.4624 115.093 31.5016 115.444C35.9663 116.956 46.3079 120.295 51.9717 120.787C52.781 120.856 53.3988 121.533 53.3988 122.34V130.816C53.3988 131.678 52.6944 132.377 51.8268 132.376L33.2968 132.347C33.022 132.347 32.7506 132.275 32.5124 132.137Z" fill="#B6CADA" />
        <path d="M51.8307 132.542H51.8274L33.2974 132.514C32.9926 132.514 32.6929 132.433 32.4298 132.282L30.5346 131.192C30.0117 130.891 29.6886 130.353 29.6687 129.755L29.2607 116.978C29.2423 116.412 29.5055 115.873 29.9634 115.536C30.428 115.195 31.0076 115.104 31.5555 115.291C35.8054 116.73 46.3035 120.132 51.9856 120.625C52.8865 120.703 53.5643 121.443 53.5643 122.342V130.82C53.5643 131.281 53.3828 131.715 53.0547 132.041C52.7266 132.367 52.2903 132.545 51.8274 132.545L51.8307 132.542ZM30.9926 115.526C30.6995 115.526 30.4114 115.618 30.1649 115.8C29.7886 116.076 29.5821 116.502 29.5971 116.966L30.0051 129.743C30.02 130.228 30.2815 130.663 30.7045 130.906L32.5996 131.996C32.8128 132.118 33.0543 132.183 33.3007 132.183L51.8307 132.211H51.8324C52.207 132.211 52.5584 132.065 52.8249 131.804C53.0913 131.541 53.2362 131.19 53.2362 130.818V122.341C53.2362 121.613 52.6883 121.016 51.9606 120.953C46.2419 120.457 35.7121 117.046 31.4522 115.603C31.3007 115.552 31.1475 115.527 30.9943 115.527L30.9926 115.526Z" fill="#7F8F9B" />
        <path d="M74.2676 128.843C77.8197 71.3729 63.7361 11.6348 63.7361 11.6348C49.113 67.9075 53.3945 132.372 53.3945 132.372" fill="#B6CADA" />
        <path d="M53.1466 132.388C53.1367 132.227 52.0842 115.995 52.8336 93.0967C53.5247 71.9615 55.936 40.6616 63.4949 11.5717L63.748 10.5957L63.9795 11.5766C64.0145 11.7255 67.5383 26.775 70.5808 48.6528C73.3902 68.8451 76.3528 99.1492 74.516 128.858L74.018 128.828C75.8516 99.1641 72.8923 68.8964 70.0879 48.7273C67.4933 30.08 64.5524 16.4001 63.7214 12.6932C56.3757 41.4556 54.0143 72.2394 53.3315 93.1066C52.5821 115.982 53.6329 132.194 53.6446 132.355L53.1466 132.388Z" fill="#7F8F9B" />
        <path d="M11.8638 19.2911C16.3309 19.2911 19.9523 15.6941 19.9523 11.2569C19.9523 6.8197 16.3309 3.22266 11.8638 3.22266C7.39671 3.22266 3.77539 6.8197 3.77539 11.2569C3.77539 15.6941 7.39671 19.2911 11.8638 19.2911Z" fill="var(--lahta-circle-color)" />
        <path d="M11.8643 19.4559C7.31304 19.4559 3.60938 15.7771 3.60938 11.2563C3.60938 6.73548 7.31304 3.05664 11.8643 3.05664C16.4157 3.05664 20.1193 6.73548 20.1193 11.2563C20.1193 15.7771 16.4157 19.4559 11.8643 19.4559ZM11.8643 3.38747C7.49622 3.38747 3.94244 6.91744 3.94244 11.2563C3.94244 15.5951 7.49622 19.1251 11.8643 19.1251C16.2325 19.1251 19.7863 15.5951 19.7863 11.2563C19.7863 6.91744 16.2325 3.38747 11.8643 3.38747Z" fill="#7F8F9B" />
        <path d="M33.2005 40.7461C33.2005 40.9049 33.104 41.0472 32.9557 41.1034L30.6559 41.9801C29.8466 42.2895 29.2121 42.9313 28.9157 43.7435L28.0414 46.137C28.0347 46.1552 28.0214 46.1685 28.0131 46.1833C28.0048 46.1966 27.9981 46.2098 27.9898 46.2214C27.9764 46.2396 27.9615 46.2561 27.9448 46.271C27.9182 46.2942 27.8882 46.3157 27.8549 46.3306C27.8332 46.3388 27.8132 46.3455 27.7916 46.3488C27.7699 46.3537 27.75 46.357 27.7283 46.357L27.66 46.3488C27.6384 46.3455 27.6184 46.3388 27.5968 46.3306C27.5618 46.3157 27.5318 46.2942 27.5052 46.2694C27.4885 46.2545 27.4752 46.2379 27.4602 46.2214C27.4519 46.2115 27.4452 46.1999 27.4402 46.1883C27.4286 46.1701 27.4136 46.1552 27.4069 46.1354L26.5326 43.7418C26.2379 42.9296 25.6034 42.2878 24.794 41.9785L22.4942 41.1018C22.346 41.0455 22.2461 40.9016 22.2461 40.7445C22.2461 40.5791 22.356 40.4302 22.5142 40.3822L24.6175 39.7239C25.5284 39.4394 26.2462 38.738 26.5543 37.8414L27.4102 35.3288C27.4202 35.3007 27.4336 35.2742 27.4502 35.251C27.4602 35.2361 27.4719 35.2196 27.4868 35.2064C27.5185 35.1733 27.5568 35.1468 27.6051 35.1286C27.6184 35.1237 27.6334 35.1187 27.65 35.1154C27.6734 35.1071 27.7 35.1055 27.725 35.1055C27.75 35.1055 27.7766 35.1088 27.7999 35.1154C27.8149 35.1187 27.8316 35.1237 27.8449 35.1286C27.8865 35.1435 27.9232 35.17 27.9548 35.1981C27.9681 35.2113 27.9781 35.2246 27.9881 35.2378C28.0098 35.2659 28.0281 35.294 28.0381 35.3288L28.894 37.8414C29.1988 38.738 29.9199 39.4394 30.8275 39.7239L32.9308 40.3822C33.0923 40.4318 33.1989 40.5791 33.1989 40.7445L33.2005 40.7461Z" fill="white" />
        <path d="M49.5052 76.6055C49.5052 76.7643 49.4086 76.9066 49.2604 76.9628L46.9606 77.8395C46.1513 78.1488 45.5168 78.7906 45.2204 79.6028L44.3461 81.9964C44.3394 82.0146 44.3261 82.0278 44.3178 82.0427C44.3094 82.0559 44.3028 82.0692 44.2945 82.0808C44.2811 82.099 44.2661 82.1155 44.2495 82.1304C44.2228 82.1535 44.1929 82.175 44.1596 82.1899C44.1379 82.1982 44.1179 82.2048 44.0963 82.2081C44.0746 82.2131 44.0546 82.2164 44.033 82.2164L43.9647 82.2081C43.9431 82.2048 43.9231 82.1982 43.9014 82.1899C43.8665 82.175 43.8365 82.1535 43.8098 82.1287C43.7932 82.1138 43.7799 82.0973 43.7649 82.0808C43.7566 82.0708 43.7499 82.0593 43.7449 82.0477C43.7332 82.0295 43.7183 82.0146 43.7116 81.9947L42.8373 79.6012C42.5425 78.789 41.9081 78.1472 41.0987 77.8379L38.7989 76.9612C38.6507 76.9049 38.5508 76.761 38.5508 76.6039C38.5508 76.4384 38.6607 76.2896 38.8189 76.2416L40.9222 75.5832C41.8331 75.2987 42.5509 74.5974 42.8589 73.7008L43.7149 71.1882C43.7249 71.16 43.7382 71.1336 43.7549 71.1104C43.7649 71.0955 43.7765 71.079 43.7915 71.0657C43.8232 71.0327 43.8615 71.0062 43.9098 70.988C43.9231 70.983 43.9381 70.9781 43.9547 70.9748C43.978 70.9665 44.0047 70.9648 44.0297 70.9648C44.0547 70.9648 44.0813 70.9682 44.1046 70.9748C44.1196 70.9781 44.1362 70.983 44.1496 70.988C44.1912 71.0029 44.2278 71.0294 44.2595 71.0575C44.2728 71.0707 44.2828 71.0839 44.2928 71.0972C44.3144 71.1253 44.3328 71.1534 44.3427 71.1882L45.1987 73.7008C45.5035 74.5974 46.2246 75.2987 47.1321 75.5832L49.2354 76.2416C49.397 76.2912 49.5036 76.4384 49.5036 76.6039L49.5052 76.6055Z" fill="white" />
        <path d="M45.8984 43.9798C45.8984 43.3744 46.3914 42.8848 47.0009 42.8848C47.6104 42.8848 48.1033 43.3744 48.1033 43.9798C48.1033 44.5852 47.6104 45.0749 47.0009 45.0749C46.3914 45.0749 45.8984 44.5852 45.8984 43.9798Z" fill="white" />
        <path d="M25.4091 66.8171C26.0179 66.8171 26.5115 66.3268 26.5115 65.722C26.5115 65.1172 26.0179 64.627 25.4091 64.627C24.8002 64.627 24.3066 65.1172 24.3066 65.722C24.3066 66.3268 24.8002 66.8171 25.4091 66.8171Z" fill="white" />
        <path d="M23.5273 52.2621C23.5273 51.9346 23.7938 51.6699 24.1235 51.6699C24.4533 51.6699 24.7197 51.9346 24.7197 52.2621C24.7197 52.5896 24.4533 52.8543 24.1235 52.8543C23.7938 52.8543 23.5273 52.5896 23.5273 52.2621Z" fill="white" />
        <path d="M50.459 48.4425C50.459 48.0455 50.7821 47.7246 51.1817 47.7246C51.5814 47.7246 51.9045 48.0455 51.9045 48.4425C51.9045 48.8395 51.5814 49.1604 51.1817 49.1604C50.7821 49.1604 50.459 48.8395 50.459 48.4425Z" fill="white" />
        <path d="M49.7755 28.8616C50.1746 28.8616 50.4982 28.5402 50.4982 28.1437C50.4982 27.7472 50.1746 27.4258 49.7755 27.4258C49.3763 27.4258 49.0527 27.7472 49.0527 28.1437C49.0527 28.5402 49.3763 28.8616 49.7755 28.8616Z" fill="white" />
        <path d="M30.2813 57.8811C30.6805 57.8811 31.0041 57.5597 31.0041 57.1632C31.0041 56.7667 30.6805 56.4453 30.2813 56.4453C29.8822 56.4453 29.5586 56.7667 29.5586 57.1632C29.5586 57.5597 29.8822 57.8811 30.2813 57.8811Z" fill="white" />
        <path d="M11.672 16.512C12.0711 16.512 12.3947 16.1906 12.3947 15.7941C12.3947 15.3976 12.0711 15.0762 11.672 15.0762C11.2728 15.0762 10.9492 15.3976 10.9492 15.7941C10.9492 16.1906 11.2728 16.512 11.672 16.512Z" fill="white" />
        <path d="M31.2155 118.778L31.3387 121.79C31.3553 122.187 31.6784 122.501 32.0781 122.509L37.3805 122.614C38.1598 122.629 38.4479 121.603 37.7735 121.214L32.3479 118.096C31.8333 117.8 31.1921 118.185 31.2155 118.776V118.778Z" fill="#7F8F9B" />
        <path d="M68.9702 71.8789H67.2216C66.6127 71.8789 66.1191 72.3692 66.1191 72.974V72.9756C66.1191 73.5804 66.6127 74.0707 67.2216 74.0707H68.9702C69.579 74.0707 70.0726 73.5804 70.0726 72.9756V72.974C70.0726 72.3692 69.579 71.8789 68.9702 71.8789Z" fill="#7F8F9B" />
        <path d="M59.6928 87.373H57.9442C57.3354 87.373 56.8418 87.8633 56.8418 88.4681V88.4698C56.8418 89.0745 57.3354 89.5648 57.9442 89.5648H59.6928C60.3017 89.5648 60.7953 89.0745 60.7953 88.4698V88.4681C60.7953 87.8633 60.3017 87.373 59.6928 87.373Z" fill="#7F8F9B" />
        <path d="M67.9741 101.834H66.2255C65.6166 101.834 65.123 102.324 65.123 102.929V102.931C65.123 103.535 65.6166 104.026 66.2255 104.026H67.9741C68.5829 104.026 69.0765 103.535 69.0765 102.931V102.929C69.0765 102.324 68.5829 101.834 67.9741 101.834Z" fill="#7F8F9B" />
        <path d="M61.5639 50.2988H59.8153C59.2065 50.2988 58.7129 50.7891 58.7129 51.3939V51.3955C58.7129 52.0003 59.2065 52.4906 59.8153 52.4906H61.5639C62.1728 52.4906 62.6663 52.0003 62.6663 51.3955V51.3939C62.6663 50.7891 62.1728 50.2988 61.5639 50.2988Z" fill="#7F8F9B" />
        <path d="M62.7651 42.5039H61.0165C60.4076 42.5039 59.9141 42.9942 59.9141 43.599V43.6006C59.9141 44.2054 60.4076 44.6957 61.0165 44.6957H62.7651C63.3739 44.6957 63.8675 44.2054 63.8675 43.6006V43.599C63.8675 42.9942 63.3739 42.5039 62.7651 42.5039Z" fill="#7F8F9B" />
        <path d="M61.7289 40.2266H60.8313C60.4045 40.2266 60.0586 40.5702 60.0586 40.9941V40.9957C60.0586 41.4196 60.4045 41.7633 60.8313 41.7633H61.7289C62.1557 41.7633 62.5016 41.4196 62.5016 40.9957V40.9941C62.5016 40.5702 62.1557 40.2266 61.7289 40.2266Z" fill="#7F8F9B" />
        <path d="M63.9184 26.8984H63.0208C62.594 26.8984 62.248 27.2421 62.248 27.666V27.6676C62.248 28.0915 62.594 28.4351 63.0208 28.4351H63.9184C64.3451 28.4351 64.6911 28.0915 64.6911 27.6676V27.666C64.6911 27.2421 64.3451 26.8984 63.9184 26.8984Z" fill="#7F8F9B" />
        <path d="M67.3797 78.1713C67.3797 77.7758 67.0568 77.4551 66.6586 77.4551C66.2603 77.4551 65.9375 77.7758 65.9375 78.1713V78.1763C65.9375 78.5719 66.2603 78.8925 66.6586 78.8925C67.0568 78.8925 67.3797 78.5719 67.3797 78.1763V78.1713Z" fill="#7F8F9B" />
        <path d="M68.9988 97.2651C68.9988 96.8695 68.676 96.5488 68.2777 96.5488C67.8795 96.5488 67.5566 96.8695 67.5566 97.2651V97.27C67.5566 97.6656 67.8795 97.9863 68.2777 97.9863C68.676 97.9863 68.9988 97.6656 68.9988 97.27V97.2651Z" fill="#7F8F9B" />
        <path d="M67.0574 65.1733C67.0574 64.7777 66.7346 64.457 66.3363 64.457C65.9381 64.457 65.6152 64.7777 65.6152 65.1733V65.1782C65.6152 65.5738 65.9381 65.8945 66.3363 65.8945C66.7346 65.8945 67.0574 65.5738 67.0574 65.1782V65.1733Z" fill="#7F8F9B" />
        <path d="M68.5789 55.5405C68.5789 55.1449 68.256 54.8242 67.8578 54.8242C67.4596 54.8242 67.1367 55.1449 67.1367 55.5405V55.5454C67.1367 55.941 67.4596 56.2617 67.8578 56.2617C68.256 56.2617 68.5789 55.941 68.5789 55.5454V55.5405Z" fill="#7F8F9B" />
        <path d="M19.4334 5.37826C19.4334 5.52382 19.3435 5.65615 19.2069 5.70909L17.082 6.51962C16.3343 6.80414 15.7481 7.39963 15.4733 8.14896L14.6656 10.3606C14.6606 10.3771 14.6473 10.3887 14.639 10.4036C14.6323 10.4152 14.6257 10.4284 14.6173 10.4383C14.604 10.4549 14.5907 10.4714 14.5757 10.4846C14.5507 10.5061 14.5241 10.526 14.4924 10.5392C14.4725 10.5458 14.4541 10.5541 14.4341 10.5558C14.4142 10.5607 14.3958 10.5624 14.3759 10.5624L14.3126 10.5558C14.2926 10.5541 14.2743 10.5458 14.2543 10.5392C14.2227 10.526 14.1943 10.5061 14.1694 10.483C14.1544 10.4697 14.1411 10.4549 14.1277 10.4383C14.1211 10.4284 14.1144 10.4185 14.1077 10.4085C14.0978 10.392 14.0844 10.3788 14.0761 10.3606L13.2684 8.14896C12.9953 7.39963 12.4091 6.80414 11.6614 6.51962L9.53645 5.70909C9.39823 5.65615 9.30664 5.52382 9.30664 5.37826C9.30664 5.22442 9.40823 5.08878 9.55477 5.04246L11.4999 4.43373C12.3425 4.17072 13.0053 3.5223 13.2901 2.69356L14.0811 0.371131C14.0911 0.344664 14.1027 0.321506 14.1177 0.300002C14.1277 0.285115 14.1377 0.271882 14.151 0.258648C14.1794 0.227219 14.216 0.204061 14.2593 0.18752C14.2709 0.182557 14.2859 0.177595 14.3009 0.175941C14.3226 0.169324 14.3476 0.166016 14.3709 0.166016C14.3942 0.166016 14.4192 0.16767 14.4408 0.175941C14.4558 0.177595 14.4691 0.182557 14.4824 0.18752C14.5207 0.202407 14.5541 0.225565 14.584 0.252032C14.5957 0.263611 14.6057 0.27519 14.6157 0.288423C14.6357 0.31489 14.6523 0.341356 14.6623 0.372785L15.4533 2.69522C15.7364 3.52395 16.4009 4.17072 17.2419 4.43539L19.187 5.04412C19.3368 5.09043 19.4351 5.22607 19.4351 5.37991L19.4334 5.37826Z" fill="white" />
        <path d="M14.3744 10.7285L14.2928 10.7203C14.2512 10.7153 14.2179 10.7021 14.1946 10.6938C14.1413 10.6707 14.098 10.6425 14.0563 10.6061C14.0347 10.5879 14.0147 10.5648 13.9947 10.54C13.9814 10.5218 13.9714 10.5069 13.9631 10.4903C13.9514 10.4755 13.9331 10.4507 13.9198 10.4176L13.1105 8.20431C12.854 7.49964 12.3044 6.94053 11.6 6.67256L9.47507 5.86202C9.27356 5.78428 9.13867 5.59074 9.13867 5.37736C9.13867 5.14908 9.28522 4.95224 9.50338 4.88442L11.4468 4.27569C12.2328 4.02922 12.8623 3.41884 13.1288 2.63973L13.9198 0.317299C13.9348 0.275945 13.9531 0.239553 13.9747 0.20647C13.9864 0.188275 14.0031 0.163462 14.0314 0.13865C14.0763 0.0923337 14.1313 0.0559423 14.1946 0.03113C14.2162 0.0228592 14.2362 0.0162426 14.2562 0.0129343C14.3228 -0.00691559 14.4094 -0.00691559 14.476 0.0129343C14.496 0.0162426 14.516 0.0228592 14.5376 0.03113C14.5893 0.0509798 14.6425 0.0840629 14.6908 0.128725C14.7108 0.148575 14.7241 0.165117 14.7375 0.180004C14.7708 0.224666 14.7974 0.267674 14.8141 0.322261L15.6034 2.63973C15.8682 3.41553 16.496 4.02757 17.2837 4.27569L19.2288 4.88442C19.447 4.95059 19.5935 5.14908 19.5935 5.37736C19.5935 5.60563 19.462 5.78428 19.2605 5.86202L17.1355 6.67256C16.4328 6.94053 15.8815 7.49964 15.6234 8.20431L14.8157 10.4159C14.8057 10.4473 14.7874 10.4705 14.7774 10.4837C14.7641 10.5069 14.7541 10.5234 14.7425 10.54C14.7275 10.5598 14.7075 10.5846 14.6775 10.6111C14.6392 10.6442 14.5992 10.6723 14.5543 10.6922C14.5243 10.7037 14.4943 10.7153 14.4594 10.7203C14.4294 10.7269 14.3994 10.7302 14.3694 10.7302L14.3744 10.7285ZM14.3195 10.3878C14.3195 10.3878 14.3278 10.3911 14.3345 10.3928L14.3811 10.3977C14.3811 10.3977 14.3877 10.3977 14.3911 10.3961L14.4111 10.3928C14.4111 10.3928 14.4227 10.3878 14.431 10.3861C14.4344 10.3845 14.4477 10.3746 14.461 10.363C14.4677 10.3564 14.4727 10.3514 14.481 10.3398L14.491 10.3233C14.496 10.3134 14.5027 10.3034 14.511 10.2935L15.3153 8.09348C15.6068 7.29783 16.2296 6.6676 17.0223 6.36654L19.1472 5.55601C19.2205 5.52789 19.2671 5.45841 19.2671 5.37901C19.2671 5.29961 19.2138 5.22518 19.1356 5.20202L17.1905 4.59329C16.3012 4.31374 15.5934 3.62395 15.2953 2.74891L14.5043 0.426473C14.4993 0.41324 14.4893 0.398352 14.481 0.386773C14.481 0.386773 14.4743 0.378502 14.4677 0.371886C14.451 0.356998 14.4344 0.348728 14.426 0.345419L14.3911 0.335494C14.3911 0.335494 14.3561 0.335494 14.3544 0.335494L14.3311 0.342111C14.3028 0.352036 14.2878 0.361961 14.2762 0.375194L14.2595 0.390082C14.2512 0.406623 14.2445 0.418202 14.2395 0.431435L13.4485 2.75056C13.1471 3.62726 12.4377 4.31704 11.55 4.59494L9.60496 5.20367C9.52669 5.22848 9.4734 5.30127 9.4734 5.38067C9.4734 5.46006 9.52336 5.52954 9.59663 5.55766L11.7216 6.3682C12.5159 6.67091 13.1371 7.30114 13.4252 8.09679L14.2295 10.2968C14.2395 10.31 14.2445 10.3183 14.2512 10.3282C14.2562 10.3365 14.2579 10.3415 14.2628 10.3464C14.2662 10.3514 14.2712 10.358 14.2778 10.3646C14.2945 10.3795 14.3078 10.3894 14.3195 10.3944V10.3878ZM14.5077 10.3018C14.5077 10.3018 14.5077 10.3051 14.5077 10.3067V10.3018Z" fill="#7F8F9B" />
        <path d="M58.2001 131.635C54.9377 102.464 63.4692 13.5726 63.5558 12.6777L63.8872 12.7092C63.8006 13.6041 55.2708 102.46 58.5298 131.598L58.1984 131.635H58.2001Z" fill="#7F8F9B" />
        <path d="M68.8417 126.489L68.5086 126.47C69.4478 110.221 63.9023 14.7794 63.8457 13.8167L64.1788 13.7969C64.2354 14.7596 69.7826 110.219 68.8417 126.488V126.489Z" fill="#7F8F9B" />
        <path fillRule="evenodd" clipRule="evenodd" d="M107.215 142.832L6.51317 140.594L0.65625 133.113C3.84366 134.944 6.32998 133.051 8.31171 130.671C10.5765 127.952 15.2194 129.287 17.6375 131.647C18.5018 132.492 22.4569 133.513 24.1089 131.836C25.9907 129.925 30.1923 127.378 32.7685 129.914C39.9227 136.955 42.1259 125.724 50.659 129.662C53.9164 131.166 57.8499 131.498 59.9848 129.882C66.9874 124.582 67.7901 125.376 72.3881 125.376C78.4215 125.012 91.3111 133.18 93.9889 131.488C100.577 127.33 105.928 133.756 111.974 133.756L107.216 142.831L107.215 142.832Z" fill="#0079C2" />
        <path d="M107.315 142.999H107.211L6.43145 140.756L6.38316 140.693L0 132.543L0.7394 132.969C3.284 134.431 5.58047 133.69 8.18336 130.565C8.97605 129.612 10.1218 129.071 11.494 129.002C13.5806 128.894 16.0986 129.912 17.7556 131.529C18.2069 131.969 19.8106 132.572 21.4226 132.572C21.4426 132.572 21.4643 132.572 21.4842 132.572C22.2536 132.565 23.3111 132.411 23.9922 131.721C25.4693 130.223 27.9257 128.701 30.0823 128.686C31.1814 128.676 32.1289 129.051 32.8883 129.798C36.5803 133.432 38.8851 132.1 41.553 130.558C43.9344 129.182 46.6322 127.621 50.7322 129.513C54.196 131.113 57.9596 131.21 59.8864 129.751C66.0664 125.073 67.4653 125.108 70.8375 125.189C71.3205 125.201 71.8201 125.212 72.3896 125.212C75.4521 125.03 80.3032 127.037 84.5831 128.808C88.728 130.525 92.6432 132.145 93.9022 131.351C98.0788 128.712 101.799 130.271 105.396 131.778C107.528 132.671 109.731 133.594 111.977 133.594H112.252L107.32 143.001L107.315 142.999ZM6.59632 140.43L107.115 142.665L111.701 133.92C109.485 133.85 107.34 132.952 105.263 132.082C101.583 130.54 98.1071 129.085 94.077 131.629C92.6732 132.515 88.8629 130.939 84.4515 129.113C80.2049 127.354 75.3905 125.363 72.3963 125.541C71.8201 125.541 71.2888 125.53 70.8259 125.518C67.5352 125.439 66.1713 125.407 60.0846 130.014C58.0629 131.543 54.1577 131.46 50.5873 129.812C46.6455 127.993 44.1392 129.442 41.7162 130.843C39.0467 132.386 36.5237 133.845 32.6502 130.031C31.9574 129.349 31.0898 129.008 30.0823 129.013C28.0206 129.03 25.6559 130.501 24.227 131.95C23.6258 132.56 22.6783 132.889 21.4842 132.901C21.4626 132.901 21.4409 132.901 21.4193 132.901C19.7806 132.901 18.0887 132.318 17.5208 131.763C15.9271 130.204 13.5107 129.23 11.5107 129.329C10.235 129.394 9.17256 129.893 8.43982 130.773C6.8561 132.674 4.42807 134.957 1.24233 133.589L6.59632 140.427V140.43Z" fill="#7F8F9B" />
        <path d="M80.7172 46.7962C80.7172 47.0658 80.5523 47.3073 80.2992 47.4049L76.3874 48.8953C75.0118 49.4197 73.9327 50.5131 73.4265 51.8943L71.9393 55.9651C71.9293 55.9949 71.906 56.0164 71.8894 56.0445C71.876 56.0677 71.8644 56.0892 71.8494 56.1107C71.8261 56.1421 71.8011 56.1703 71.7711 56.1951C71.7262 56.2364 71.6745 56.2712 71.6196 56.296C71.5846 56.3092 71.548 56.3224 71.513 56.3274C71.478 56.3357 71.4414 56.3406 71.4064 56.3406L71.2915 56.3274C71.2565 56.3224 71.2199 56.3092 71.1849 56.296C71.1266 56.2712 71.075 56.2348 71.0284 56.1934C71.0001 56.1686 70.9768 56.1405 70.9535 56.1107C70.9401 56.0925 70.9285 56.0743 70.9185 56.0545C70.9002 56.0247 70.8735 55.9999 70.8619 55.9651L69.3747 51.8943C68.8735 50.5147 67.7944 49.4197 66.4171 48.8953L62.5053 47.4049C62.2522 47.3073 62.084 47.0658 62.084 46.7962C62.084 46.5133 62.2705 46.2619 62.5419 46.1792L66.1207 45.0593C67.6695 44.5746 68.8918 43.3836 69.4147 41.8585L70.8702 37.5858C70.8885 37.5379 70.9102 37.4932 70.9368 37.4535C70.9551 37.427 70.9718 37.4006 70.9984 37.3791C71.0517 37.3212 71.1183 37.2782 71.1983 37.2467C71.2199 37.2385 71.2466 37.2285 71.2732 37.2252C71.3132 37.212 71.3581 37.207 71.4014 37.207C71.4447 37.207 71.4897 37.212 71.5297 37.2252C71.5563 37.2302 71.5829 37.2385 71.6046 37.2467C71.6762 37.2732 71.7378 37.3179 71.7911 37.3658C71.8128 37.3873 71.8311 37.4105 71.8494 37.432C71.8844 37.48 71.916 37.5296 71.9343 37.5858L73.3898 41.8585C73.9094 43.3836 75.1351 44.5746 76.6788 45.0593L80.2576 46.1792C80.5324 46.2635 80.7155 46.515 80.7155 46.7962H80.7172Z" fill="white" />
        <path d="M71.4092 56.5046H71.3909L71.276 56.4897C71.2193 56.4831 71.171 56.4649 71.1294 56.45C71.0511 56.417 70.9845 56.3739 70.9196 56.3144C70.8829 56.283 70.8513 56.2449 70.8247 56.2102C70.8063 56.1854 70.7913 56.1622 70.7764 56.1374C70.773 56.1324 70.7697 56.1275 70.7647 56.1209C70.748 56.0977 70.7231 56.0663 70.7081 56.0233L69.221 51.9507C68.7363 50.6158 67.6939 49.5588 66.3616 49.0493L62.4498 47.559C62.1334 47.4382 61.9219 47.1305 61.9219 46.7964C61.9219 46.4441 62.1584 46.1265 62.4964 46.0206L66.0735 44.9007C67.564 44.4343 68.7547 43.2764 69.2609 41.8042L70.7164 37.5315C70.7397 37.467 70.768 37.4107 70.803 37.3611C70.823 37.3313 70.848 37.2933 70.8879 37.2585C70.9579 37.1858 71.0428 37.1295 71.1427 37.0915C71.176 37.0782 71.2077 37.0683 71.2377 37.0633C71.3376 37.0336 71.4758 37.0336 71.5757 37.0633C71.6057 37.07 71.639 37.0782 71.6723 37.0931C71.7522 37.1229 71.8322 37.1725 71.9104 37.2436C71.9437 37.2767 71.9654 37.3015 71.9854 37.3297C72.0287 37.3892 72.0736 37.4554 72.0986 37.5381L73.5541 41.8075C74.0554 43.278 75.2444 44.4359 76.7365 44.904L80.3153 46.0239C80.6583 46.1281 80.8898 46.4408 80.8898 46.7997C80.8898 47.1587 80.6833 47.4415 80.3652 47.5623L76.4534 49.0527C75.1228 49.5605 74.0787 50.6175 73.5891 51.954L72.102 56.0249C72.0886 56.0646 72.0653 56.0944 72.0503 56.1142L72.0403 56.1275C72.022 56.1606 72.007 56.187 71.987 56.2118C71.9604 56.2466 71.9288 56.2863 71.8855 56.3227C71.8238 56.3773 71.7606 56.4186 71.6923 56.4484C71.6473 56.4649 71.6007 56.4831 71.5491 56.4914C71.5041 56.5013 71.4575 56.5079 71.4108 56.5079L71.4092 56.5046ZM71.4042 37.371C71.3725 37.371 71.3459 37.3743 71.3276 37.3793L71.3009 37.3859C71.3009 37.3859 71.2809 37.3892 71.2593 37.3991C71.201 37.4206 71.1561 37.4504 71.1211 37.4901L71.1061 37.505C71.1061 37.505 71.0878 37.5265 71.0761 37.5447C71.0561 37.5728 71.0411 37.6059 71.0262 37.6423L69.5707 41.9117C69.0311 43.4848 67.7588 44.7204 66.1684 45.2183L62.5897 46.3382C62.3882 46.401 62.2483 46.5896 62.2483 46.798C62.2483 47.0065 62.3748 47.1802 62.563 47.2529L66.4749 48.7433C67.897 49.2859 69.0111 50.414 69.529 51.8399L71.0162 55.9108C71.0162 55.9108 71.0228 55.9207 71.0278 55.9257C71.0395 55.9406 71.0495 55.9554 71.0595 55.9703C71.0695 55.9869 71.0761 56.0001 71.0861 56.0117C71.1044 56.0348 71.1194 56.053 71.1361 56.0679C71.1777 56.1043 71.2127 56.1291 71.2493 56.144C71.2676 56.1506 71.2943 56.1606 71.3093 56.1622L71.4125 56.1738C71.4325 56.1738 71.4508 56.1705 71.4708 56.1655L71.4908 56.1622C71.5074 56.1606 71.5341 56.149 71.5591 56.1407C71.5857 56.1291 71.6223 56.1043 71.659 56.0712C71.6806 56.053 71.6956 56.0332 71.7156 56.01C71.7256 55.9968 71.7323 55.9836 71.7406 55.9687C71.7522 55.9472 71.7639 55.9323 71.7739 55.9174L73.2677 51.8399C73.7906 50.414 74.9047 49.2842 76.3252 48.7433L80.237 47.2529C80.4252 47.1802 80.5468 47.0032 80.5468 46.798C80.5468 46.5929 80.4102 46.401 80.207 46.3382L76.6266 45.2183C75.0329 44.7188 73.7639 43.4815 73.2294 41.9117L71.7739 37.639C71.7606 37.5976 71.7372 37.5629 71.7123 37.5298C71.7023 37.5182 71.689 37.5 71.6706 37.4818C71.6307 37.4455 71.5857 37.4173 71.5441 37.4008C71.5191 37.3909 71.5058 37.3876 71.5008 37.3876L71.4758 37.3809C71.4575 37.3743 71.4325 37.3727 71.3992 37.3727L71.4042 37.371Z" fill="#7F8F9B" />
      </g>
      <defs>
        <clipPath id="clip0_989_104662">
          <rect width="113" height="143" fill="white" />
        </clipPath>
      </defs>
    </svg>